<svg xmlns="http://www.w3.org/2000/svg" viewBox="0 0 500 500"><g id="freepik--background-simple--inject-68"><path d="M451.59,179.31c-25.07-81.44-96-140.84-180.76-149.46L267,29.48C163.91,20.41,86.77,142.28,62.13,184.42S-2,306.94,29.07,354.91,165.86,503.37,274.12,480.68s183.46-83,194.48-172.44C473.71,266.72,463.74,218.77,451.59,179.31Z" style="fill:#92E3A9"></path><path d="M451.59,179.31c-25.07-81.44-96-140.84-180.76-149.46L267,29.48C163.91,20.41,86.77,142.28,62.13,184.42S-2,306.94,29.07,354.91,165.86,503.37,274.12,480.68s183.46-83,194.48-172.44C473.71,266.72,463.74,218.77,451.59,179.31Z" style="fill:#fff;opacity:0.7000000000000001"></path></g><g id="freepik--Vein--inject-68"><g style="opacity:0.2"><circle cx="376.61" cy="406.58" r="30.93" transform="translate(-177.19 385.39) rotate(-45)" style="fill:none;stroke:#000;stroke-linecap:round;stroke-linejoin:round;stroke-width:1.4274200000000001px"></circle><circle cx="376.61" cy="406.58" r="20.64" transform="matrix(0.16, -0.99, 0.99, 0.16, -84.73, 713.68)" style="fill:none;stroke:#000;stroke-linecap:round;stroke-linejoin:round;stroke-width:1.4274200000000001px"></circle><line x1="361.8" y1="379.18" x2="427.29" y2="336.59" style="fill:none;stroke:#000;stroke-linecap:round;stroke-linejoin:round;stroke-width:1.4274200000000001px"></line><line x1="392.5" y1="433.21" x2="457.99" y2="390.62" style="fill:none;stroke:#000;stroke-linecap:round;stroke-linejoin:round;stroke-width:1.4274200000000001px"></line></g><path d="M374.4,386.93s-6.7,25.06,0,40.29C374.4,427.22,382.06,407,374.4,386.93Z" style="fill:none;stroke:#000;stroke-linecap:round;stroke-linejoin:round;stroke-width:1.4274200000000001px;opacity:0.2"></path></g><g id="freepik--Artery--inject-68"><g style="opacity:0.2"><circle cx="376.61" cy="298.49" r="30.93" transform="translate(-100.75 353.73) rotate(-45)" style="fill:none;stroke:#000;stroke-linecap:round;stroke-linejoin:round;stroke-width:1.4274200000000001px"></circle><circle cx="376.61" cy="298.49" r="20.64" transform="translate(21.99 622.79) rotate(-80.84)" style="fill:none;stroke:#000;stroke-linecap:round;stroke-linejoin:round;stroke-width:1.4274200000000001px"></circle><line x1="361.8" y1="271.09" x2="427.29" y2="228.5" style="fill:none;stroke:#000;stroke-linecap:round;stroke-linejoin:round;stroke-width:1.4274200000000001px"></line><line x1="392.5" y1="325.11" x2="457.99" y2="282.52" style="fill:none;stroke:#000;stroke-linecap:round;stroke-linejoin:round;stroke-width:1.4274200000000001px"></line></g></g><g id="freepik--Heart--inject-68"><g style="opacity:0.2"><path d="M434.19,153.33l-.35-1.12c-1.9-6.09-7.45-13.62-12.6-19.32a.5.5,0,0,0,.08-.12A97.13,97.13,0,0,0,424.44,118c1.85-.68,3.64-1.8,3.64-4.64,0-6.16-1.38-12.93-5.25-13.49l-1-.11a23.08,23.08,0,0,0-13.32-12.38c-5-1.75-8.18-2.27-9.55-1.57l-2.15-12.48a.49.49,0,0,0-.52-.42l-7.7.48a.5.5,0,0,0-.47.5v9.95c-1-1.91-2.48-4.8-3.41-6.34-1.41-2.36-3.76-7.87-3.78-7.92a.49.49,0,0,0-.28-.27.48.48,0,0,0-.39,0l-9.18,4.12a.48.48,0,0,0-.27.3.51.51,0,0,0,0,.4l4.33,7.71c3.34,5.94,4.37,8.12,4.67,8.79C378,92.73,365.72,107.11,366,120.26h0v0a44.48,44.48,0,0,0-9.09,6.32c-4.35,3.9-9.65,10.37-10.16,19a71,71,0,0,0,1,15.82l-1.81.87,1.89-.38c2.2,12.43,7.52,24.5,15.55,29.86,5.74,3.82,17.07,8.87,28.88,12.87,11.62,3.93,21.41,6.09,27.47,6.09a19.12,19.12,0,0,0,2.23-.11c13.1-1.51,15.42-10.5,17.27-23.05S436.74,161.46,434.19,153.33ZM380.78,91.09a.5.5,0,0,0,.1-.5c0-.06-.54-1.57-4.85-9.22L372,74.13l8.22-3.68c.61,1.4,2.43,5.54,3.64,7.57,1.42,2.36,4.29,8.09,4.32,8.15a.5.5,0,0,0,1-.23V74.37l6.78-.42,2.26,13.17a.51.51,0,0,0,.54.41.5.5,0,0,0,.46-.49.32.32,0,0,1,.16-.28c.43-.3,2.16-.75,8.86,1.57a22,22,0,0,1,12.5,11.36h-.1c-.4,0-.83,0-1.28,0h-.23l-1.25,0-.35,0c-.46,0-.94.06-1.44.11l-.44,0c-.51.05-1.05.12-1.61.21l-.51.07c-.58.1-1.17.2-1.78.33l-.54.11c-.64.13-1.31.28-2,.45l-.51.13c-.73.19-1.47.4-2.25.63l-.4.12c-.82.25-1.65.52-2.52.82l-.11,0a9.7,9.7,0,0,0-1.08.46c-.08,0-.16.09-.24.13-.29.15-.58.3-.88.49l-.07,0a16.86,16.86,0,0,0-2.14,1.59c-4.46,1.61-6.41,5.22-9,10.95l-.15.33-.27.62-.26.6-.38.85c-1.64,2.89-3.28,6.12-4.74,9.33l-.08.12c-.1.15-.21.29-.32.44s-.37.53-.56.78l-.45.57c-.17.21-.33.41-.5.6s-.42.48-.63.71-.44.48-.67.71l-.34.34c-.28.27-.56.52-.85.77l-.24.22-.2.17a12.91,12.91,0,0,1-2.84,1.85l-.42-.11-.09,0-.12,0h0l-.58-.2-.14-.06-.64-.28h0l-.32-.16a12,12,0,0,1-1.09-.65,2.61,2.61,0,0,1-.3-.2l-.3-.23a4,4,0,0,1-.4-.32,8.12,8.12,0,0,1-.7-.63l-.19-.2c-.11-.11-.21-.23-.32-.35l-.3-.34c-.15-.18-.29-.38-.44-.57s-.15-.2-.23-.31l0-.07c-.13-.19-.25-.39-.38-.59s-.23-.4-.34-.61-.16-.29-.23-.44-.2-.4-.29-.62-.26-.61-.38-.93c-.06-.15-.11-.3-.16-.45-.11-.34-.23-.7-.33-1.07a1.21,1.21,0,0,0-.05-.18c-.11-.45-.22-.92-.31-1.42a2,2,0,0,1,0-.24,25.36,25.36,0,0,1-.36-3.47s0-.08,0-.12c0-.24,0-.48,0-.72C367,106.43,380.64,91.25,380.78,91.09Zm15.41,17.2a44.2,44.2,0,0,0-2.79,3.52A14,14,0,0,1,396.19,108.29Zm-16.83,27.23c0,.23-.05.46-.09.7,0,0,0,0,0,.06-.55,3.27-2.52,6.8-4,9.09a.22.22,0,0,0-.05.08l-.06.09-.29.43c-.34.49-.72,1-1.11,1.44a25.11,25.11,0,0,1-2.42,2.55v0l-.19.17.05.26h0a11,11,0,0,0,.58,2,11.68,11.68,0,0,0,1.59,2.91,13.59,13.59,0,0,0,1.87,1.93c.24.2.48.4.74.59a17.46,17.46,0,0,0,2.76,1.69c1.14.6,2.25,1.22,3.33,1.85.61.36,1.22.71,1.82,1.08-.49-.23-1-.44-1.49-.66-1.29-.56-2.61-1.12-4-1.63l-.8-.3a16.55,16.55,0,0,1-4.43-2.59c-.35-.29-.68-.59-1-.92l-.38-.45a13.87,13.87,0,0,1-2.29-3.56l-.26-.57-.48.36h0l-.42.32c-.24.18-.49.37-.75.55-.56.41-1.14.79-1.73,1.16a45.71,45.71,0,0,1-7,3.55c-.58.25-1.17.48-1.75.69l-.06,0c-.6.21-1.2.41-1.8.59l-.32.1,0,.34a23.35,23.35,0,0,0,.17,4.9c.09.61.19,1.23.32,1.85a25.19,25.19,0,0,0,3.1,8.1q1.13,1.83,2.4,3.61c.78,1.08,1.59,2.15,2.44,3.2a59.13,59.13,0,0,1-4.42-5c-.37-.47-.74-.94-1.09-1.42a25.34,25.34,0,0,1-3.48-6.53c-.19-.53-.38-1.06-.55-1.61-.09-.32-.16-.62-.23-.92a27,27,0,0,1-.85-5.24l0-.4.58-.31c.62-.33,1.24-.65,1.86-1l.29-.16.4-.21a69.06,69.06,0,0,0,10.31-7.22,34.06,34.06,0,0,0,4.09-4.35c.67-.85,1.33-1.73,2-2.66a24,24,0,0,0,1.28-2.16,20.67,20.67,0,0,0,1.3-2.94,12.93,12.93,0,0,0,.62-2.47l.24-.14.19-.11c.42.12.68.16.69.17h.08l.18,0a12.45,12.45,0,0,0,2.66-1.61c0,.1,0,.21,0,.31S379.37,135.4,379.36,135.52ZM347.7,145.65c.84-14.1,15-22.5,18.3-24.26,0,.23,0,.43.06.65s0,.26,0,.39,0,.25.05.38l.06.53c.06.47.13.92.21,1.36,0,.06,0,.12,0,.19.08.41.17.81.27,1.19,0,.08,0,.16.07.24.11.43.24.83.37,1.22a.5.5,0,0,0,.05.13c.11.33.24.65.37,1l.13.3c.12.28.25.55.38.8l.24.44c.05.08.09.16.13.24l.18.28a13.4,13.4,0,0,0,.84,1.24l.26.32c.16.19.31.37.47.54s.19.21.29.31l.5.49.23.2a12.22,12.22,0,0,0,1.74,1.28l.29.17.36.19,0,0,.21.11c.24.12.48.23.7.32l-.12.08,0,.25a5.24,5.24,0,0,1-.08.53,14.63,14.63,0,0,1-1.1,3.42,21.85,21.85,0,0,1-1.89,3.42,35.46,35.46,0,0,1-3.89,4.88c-.17.18-.33.37-.5.54-.49.48-1,.95-1.48,1.39a67.31,67.31,0,0,1-10.14,7.1l-.68.37c-.9.49-1.8,1-2.71,1.44-.75.41-1.55.8-2.32,1.17l-1,.49A70.49,70.49,0,0,1,347.7,145.65Zm90.46,41.77c-1.85,12.48-4,20.76-16.41,22.19s-46.55-11.12-57.9-18.69c-7.82-5.21-13-17-15.14-29.21l1.14-.23,1.88-.39c0,.32.06.65.1,1a28.51,28.51,0,0,0,.61,3.38c.11.46.23.94.37,1.43a27.14,27.14,0,0,0,1.82,4.61,24.57,24.57,0,0,0,2.36,3.86,57.83,57.83,0,0,0,5.47,6.32l.54.56c1.19,1.14,2.55,2.38,4,3.56a33.51,33.51,0,0,0,3,2.15h0a.51.51,0,0,0,.67-.14.5.5,0,0,0-.1-.68h0a38.61,38.61,0,0,1-5.61-5.53l-.57-.69a59.72,59.72,0,0,1-5.1-7.09,24.19,24.19,0,0,1-3-7.79,24.87,24.87,0,0,1-.52-5c0-.39,0-.78,0-1.15,1.11-.35,2.25-.77,3.37-1.25a43,43,0,0,0,8.93-4.81l.7-.52a14,14,0,0,0,.89,1.54,15.13,15.13,0,0,0,1.15,1.55c.18.21.36.43.56.64l.53.5a17.38,17.38,0,0,0,6.08,3.56A77.41,77.41,0,0,1,390.4,167l.34.2h0a.51.51,0,0,0,.67-.14.5.5,0,0,0-.1-.68h0a78.62,78.62,0,0,0-12.13-7.79h0a15.05,15.05,0,0,1-3.88-2.66,11.18,11.18,0,0,1-1.14-1.26,10.73,10.73,0,0,1-1.93-4.18l.72-.72c.14-.15.29-.29.43-.45a26.08,26.08,0,0,0,2.32-2.8c.36-.54.76-1.17,1.18-1.87,1.77-2.95,3.75-7.1,3.52-10.62.15-.13.3-.26.45-.41s.42-.39.63-.6l0,0,.2-.2c.34-.34.66-.68,1-1l.06-.08c.16-.17.3-.35.45-.53s.46-.55.69-.84l.39-.54v0a.5.5,0,0,0,.42-.29l.3-.69.08-.1v0c.12-.18.22-.35.33-.53a37.66,37.66,0,0,0,2.66-4.88l.23-.53c.39-.85.76-1.68,1.1-2.47l.41-.92c.26-.45.53-.92.81-1.38l.36-.62.05-.09a46.77,46.77,0,0,1,8.47-10.87h0a15.15,15.15,0,0,1,2.84-2,9.52,9.52,0,0,1,1.32-.6,58.08,58.08,0,0,1,10.06-2.6,34.08,34.08,0,0,1,7-.44l.67,0c.46,0,.88.09,1.26.14,3,.43,4.38,6.58,4.38,12.49,0,2.24-1.25,3.11-3.26,3.81-.72.24-1.53.45-2.38.67-2.88.74-6.15,1.59-8.67,4.33a13.59,13.59,0,0,0-1.3,1.72h0l-.28.44a8.88,8.88,0,0,0-.5.9l-.2.38h0c-2.81,5.83-2.21,13-2.18,13.3a.5.5,0,0,0,.5.45h.05a.51.51,0,0,0,.45-.54c0-.08-.59-7.05,2-12.61l7.57,5.57c5.18,5.43,11.94,14.1,14,20.71l.35,1.12C435.76,161.67,440,175.14,438.16,187.42Z"></path><path d="M425.87,148.91l-1.95-.77a14.37,14.37,0,0,1-1.66-.91,31.12,31.12,0,0,1-3.18-2.43,57.83,57.83,0,0,1-5.72-5.93l-.33-.39-3.33,3,.36.38a60.13,60.13,0,0,0,6.66,5.89,3.62,3.62,0,0,0,.32.22,27.14,27.14,0,0,0-5.74,8.64c-1.65,3.8-2.05,8.65-1.16,14,.23,1.79.5,3.58.77,5.36.38,2.58.78,5.25,1.06,7.87.43,4.35.65,8.91-1.66,12.58a.5.5,0,0,0,.83.56c2.75-3.84,2.83-8.87,2.69-13.28-.11-2.54-.33-5.11-.54-7.59-.17-1.89-.33-3.85-.45-5.78a35.62,35.62,0,0,1-.16-3.62,19.79,19.79,0,0,1,1.32-7.38c.17-.43.36-.85.57-1.27s.49-1,.77-1.43a37,37,0,0,1,3.28,7.65,46.22,46.22,0,0,1,1.83,11.43,65.89,65.89,0,0,0,1.49,12.12,29.24,29.24,0,0,0,2,5.83,11.82,11.82,0,0,0,3.87,4.89.45.45,0,0,0,.27.08.5.5,0,0,0,.3-.9,10.59,10.59,0,0,1-3.13-4.64,27.47,27.47,0,0,1-1.47-5.63,61.93,61.93,0,0,1-.6-11.75,48.9,48.9,0,0,0-1.09-12.34,38.35,38.35,0,0,0-4-10.47,24.29,24.29,0,0,1,2.64-2.58,19.31,19.31,0,0,0,2,.9c.55.17,1,.3,1.47.41l.6.17a10,10,0,0,1,1.11.42,14,14,0,0,1,5.18,4.06c.22.28.42.59.63.88a20.75,20.75,0,0,1,3.07,6.46.5.5,0,0,0,.59.35.49.49,0,0,0,.38-.57,21.87,21.87,0,0,0-3-8.29A16.07,16.07,0,0,0,425.87,148.91Zm-.77,1.88-.64-.17c-.42-.11-.88-.24-1.39-.4a15,15,0,0,1-2.05-.92l-.13-.08h0l-.09-.05h-.63v.26l-.36.31-.33.28-.46.42c-.1.11-.21.21-.32.31l-.51.52-.28.29c-.27.28-.54.58-.81.89l-.23.27.18.31a37.23,37.23,0,0,1,4,10.51,47.65,47.65,0,0,1,1.07,12.08,67.83,67.83,0,0,0,.34,10,70.63,70.63,0,0,1-1.05-10,47.38,47.38,0,0,0-1.87-11.68,38,38,0,0,0-3.81-8.59l-.42-.68-.43.67a22.72,22.72,0,0,0-1.25,2.23c-1.73,3.46-2.31,7.53-1.83,12.78.12,1.93.29,3.9.45,5.8.15,1.75.3,3.54.42,5.33-.24-1.92-.53-3.84-.82-5.71s-.53-3.55-.77-5.36a34.06,34.06,0,0,1-.44-4.64,22.67,22.67,0,0,1,.9-7.07,16.74,16.74,0,0,1,.64-1.75c.35-.82.73-1.63,1.15-2.4.19-.35.4-.67.6-1s.49-.85.77-1.26.44-.58.65-.87.6-.83.93-1.22.43-.46.64-.7c.37-.41.74-.83,1.14-1.22l.24-.1v-.59l-.2-.15a3.74,3.74,0,0,0-.42-.27c-.13-.09-.27-.17-.4-.27a57.86,57.86,0,0,1-6.17-5.41l1.78-1.59a56.78,56.78,0,0,0,5.49,5.65,31,31,0,0,0,3.3,2.52,14.56,14.56,0,0,0,1.81,1l2,.77a15.15,15.15,0,0,1,6.41,5.77l.05.08-.06-.07h0A14.52,14.52,0,0,0,425.1,150.79Z"></path></g></g><g id="freepik--blood-cells--inject-68"><g style="opacity:0.2"><ellipse cx="101.29" cy="202.21" rx="18.92" ry="13.73" transform="translate(-124.23 185.19) rotate(-59.08)" style="fill:none;stroke:#000;stroke-linecap:round;stroke-linejoin:round;stroke-width:1.4274200000000001px"></ellipse><path d="M105.36,189.67a5.33,5.33,0,0,1,1.81.66c3.82,2.29,3.87,9.21.11,15.48s-9.88,9.48-13.69,7.2a5.44,5.44,0,0,1-2.15-2.5" style="fill:none;stroke:#000;stroke-linecap:round;stroke-linejoin:round;stroke-width:1.4274200000000001px"></path><path d="M100.3,190.73a10.05,10.05,0,0,1,3-1" style="fill:none;stroke:#000;stroke-linecap:round;stroke-linejoin:round;stroke-width:1.4274200000000001px"></path></g><g style="opacity:0.2"><path d="M122.58,174.65c-5.64,5.07-15.87,2.89-22.86-4.88s-8.1-18.17-2.47-23.24,15.87-2.89,22.87,4.87S128.21,169.57,122.58,174.65Z" style="fill:none;stroke:#000;stroke-linecap:round;stroke-linejoin:round;stroke-width:1.4274200000000001px"></path><path d="M120.71,168.16a4.92,4.92,0,0,1-1.17,1.54c-3.3,3-9.93,1-14.82-4.43s-6.17-12.24-2.87-15.21a5.44,5.44,0,0,1,3-1.32" style="fill:none;stroke:#000;stroke-linecap:round;stroke-linejoin:round;stroke-width:1.4274200000000001px"></path><path d="M121.18,163a10,10,0,0,1,.11,3.2" style="fill:none;stroke:#000;stroke-linecap:round;stroke-linejoin:round;stroke-width:1.4274200000000001px"></path></g><g style="opacity:0.2"><ellipse cx="120.26" cy="77.21" rx="18.92" ry="13.73" transform="translate(-22.09 64.52) rotate(-27.61)" style="fill:none;stroke:#000;stroke-linecap:round;stroke-linejoin:round;stroke-width:1.4274200000000001px"></ellipse><path d="M130.28,68.64a5.17,5.17,0,0,1,1.2,1.51c2.06,3.94-1.51,9.87-8,13.25s-13.38,2.94-15.44-1a5.41,5.41,0,0,1-.53-3.26" style="fill:none;stroke:#000;stroke-linecap:round;stroke-linejoin:round;stroke-width:1.4274200000000001px"></path><path d="M125.42,66.9a9.92,9.92,0,0,1,3.12.69" style="fill:none;stroke:#000;stroke-linecap:round;stroke-linejoin:round;stroke-width:1.4274200000000001px"></path></g><g style="opacity:0.2"><ellipse cx="133.94" cy="115.77" rx="12.5" ry="17.23" transform="translate(-43.06 119.39) rotate(-42.01)" style="fill:none;stroke:#000;stroke-linecap:round;stroke-linejoin:round;stroke-width:1.4274200000000001px"></ellipse><path d="M143.76,122.67a4.52,4.52,0,0,1-1,1.4c-3,2.71-9.05.9-13.5-4s-5.62-11.13-2.61-13.84a5,5,0,0,1,2.75-1.21" style="fill:none;stroke:#000;stroke-linecap:round;stroke-linejoin:round;stroke-width:1.4274200000000001px"></path><path d="M144.2,118a9,9,0,0,1,.1,2.91" style="fill:none;stroke:#000;stroke-linecap:round;stroke-linejoin:round;stroke-width:1.4274200000000001px"></path></g><g style="opacity:0.2"><path d="M135.88,243.37c-3.5,3.14-9.85,1.79-14.19-3s-5-11.27-1.52-14.42,9.84-1.79,14.18,3S139.37,240.22,135.88,243.37Z" style="fill:none;stroke:#000;stroke-linecap:round;stroke-linejoin:round;stroke-width:1.4274200000000001px"></path><path d="M134.72,239.34a3.11,3.11,0,0,1-.72,1c-2.05,1.84-6.17.61-9.2-2.75S121,230,123,228.11a3.36,3.36,0,0,1,1.87-.82" style="fill:none;stroke:#000;stroke-linecap:round;stroke-linejoin:round;stroke-width:1.4274200000000001px"></path><path d="M135,236.15a6.14,6.14,0,0,1,.07,2" style="fill:none;stroke:#000;stroke-linecap:round;stroke-linejoin:round;stroke-width:1.4274200000000001px"></path></g><g style="opacity:0.2"><ellipse cx="89.46" cy="70.59" rx="11.74" ry="8.52" transform="matrix(0.26, -0.97, 0.97, 0.26, -1.85, 138.77)" style="fill:none;stroke:#000;stroke-linecap:round;stroke-linejoin:round;stroke-width:1.4274200000000001px"></ellipse><path d="M89.16,78.76A3.18,3.18,0,0,1,88,78.68c-2.66-.71-3.87-4.84-2.7-9.21s4.27-7.35,6.94-6.64A3.4,3.4,0,0,1,93.92,64" style="fill:none;stroke:#000;stroke-linecap:round;stroke-linejoin:round;stroke-width:1.4274200000000001px"></path><path d="M92,77.27a6.27,6.27,0,0,1-1.63,1.14" style="fill:none;stroke:#000;stroke-linecap:round;stroke-linejoin:round;stroke-width:1.4274200000000001px"></path></g><g style="opacity:0.2"><path d="M95.39,341.05c-4.55-1.21-6.87-7.27-5.2-13.54s6.72-10.35,11.26-9.14,6.87,7.28,5.2,13.54S99.93,342.27,95.39,341.05Z" style="fill:none;stroke:#000;stroke-linecap:round;stroke-linejoin:round;stroke-width:1.4274200000000001px"></path><path d="M98.13,337.89a3.24,3.24,0,0,1-1.2-.09c-2.66-.71-3.87-4.83-2.7-9.21s4.28-7.34,6.94-6.63a3.36,3.36,0,0,1,1.71,1.13" style="fill:none;stroke:#000;stroke-linecap:round;stroke-linejoin:round;stroke-width:1.4274200000000001px"></path><path d="M101,336.4a6.06,6.06,0,0,1-1.62,1.14" style="fill:none;stroke:#000;stroke-linecap:round;stroke-linejoin:round;stroke-width:1.4274200000000001px"></path></g><g style="opacity:0.2"><ellipse cx="79.28" cy="238.73" rx="11.74" ry="8.52" transform="matrix(0.26, -0.97, 0.97, 0.26, -171.83, 253.65)" style="fill:none;stroke:#000;stroke-linecap:round;stroke-linejoin:round;stroke-width:1.4274200000000001px"></ellipse><path d="M79,246.91a3.25,3.25,0,0,1-1.2-.09c-2.66-.71-3.87-4.83-2.7-9.21S79.37,230.27,82,231a3.36,3.36,0,0,1,1.71,1.13" style="fill:none;stroke:#000;stroke-linecap:round;stroke-linejoin:round;stroke-width:1.4274200000000001px"></path><path d="M81.82,245.42a6.06,6.06,0,0,1-1.62,1.14" style="fill:none;stroke:#000;stroke-linecap:round;stroke-linejoin:round;stroke-width:1.4274200000000001px"></path></g><g style="opacity:0.2"><path d="M118.29,284.21c-5.12,4.62-14.44,2.64-20.81-4.43s-7.37-16.55-2.24-21.17,14.44-2.63,20.81,4.44S123.42,279.59,118.29,284.21Z" style="fill:none;stroke:#000;stroke-linecap:round;stroke-linejoin:round;stroke-width:1.4274200000000001px"></path><path d="M116.59,278.31a4.67,4.67,0,0,1-1.06,1.4c-3,2.71-9,.9-13.5-4s-5.61-11.13-2.61-13.84a5,5,0,0,1,2.76-1.21" style="fill:none;stroke:#000;stroke-linecap:round;stroke-linejoin:round;stroke-width:1.4274200000000001px"></path><path d="M117,273.63a8.74,8.74,0,0,1,.1,2.91" style="fill:none;stroke:#000;stroke-linecap:round;stroke-linejoin:round;stroke-width:1.4274200000000001px"></path></g><g style="opacity:0.2"><ellipse cx="112.83" cy="359.83" rx="8.52" ry="11.74" transform="translate(-252.39 453.73) rotate(-87.01)" style="fill:none;stroke:#000;stroke-linecap:round;stroke-linejoin:round;stroke-width:1.4274200000000001px"></ellipse><path d="M120.89,358.42a3.16,3.16,0,0,1,.17,1.18c-.15,2.76-3.93,4.8-8.45,4.56s-8.08-2.66-7.93-5.41a3.39,3.39,0,0,1,.74-1.91" style="fill:none;stroke:#000;stroke-linecap:round;stroke-linejoin:round;stroke-width:1.4274200000000001px"></path><path d="M118.84,356a6.39,6.39,0,0,1,1.46,1.36" style="fill:none;stroke:#000;stroke-linecap:round;stroke-linejoin:round;stroke-width:1.4274200000000001px"></path></g><g style="opacity:0.2"><path d="M104.48,447.05c-4.7-.16-8.33-5.55-8.11-12s4.22-11.6,8.92-11.44,8.33,5.55,8.1,12S109.18,447.22,104.48,447.05Z" style="fill:none;stroke:#000;stroke-linecap:round;stroke-linejoin:round;stroke-width:1.4274200000000001px"></path><path d="M106.44,443.35a3.23,3.23,0,0,1-1.19.19c-2.75-.1-4.86-3.84-4.7-8.37s2.52-8.12,5.27-8a3.31,3.31,0,0,1,1.92.71" style="fill:none;stroke:#000;stroke-linecap:round;stroke-linejoin:round;stroke-width:1.4274200000000001px"></path><path d="M108.86,441.26a6,6,0,0,1-1.33,1.48" style="fill:none;stroke:#000;stroke-linecap:round;stroke-linejoin:round;stroke-width:1.4274200000000001px"></path></g><g style="opacity:0.2"><path d="M69.41,324.35c-4.7-.17-8.33-5.55-8.1-12s4.21-11.6,8.92-11.44,8.32,5.55,8.1,12S74.11,324.51,69.41,324.35Z" style="fill:none;stroke:#000;stroke-linecap:round;stroke-linejoin:round;stroke-width:1.4274200000000001px"></path><path d="M71.37,320.64a3,3,0,0,1-1.18.19c-2.76-.09-4.86-3.84-4.71-8.37s2.52-8.11,5.28-8a3.51,3.51,0,0,1,1.92.71" style="fill:none;stroke:#000;stroke-linecap:round;stroke-linejoin:round;stroke-width:1.4274200000000001px"></path><path d="M73.8,318.56A6.34,6.34,0,0,1,72.47,320" style="fill:none;stroke:#000;stroke-linecap:round;stroke-linejoin:round;stroke-width:1.4274200000000001px"></path></g><g style="opacity:0.2"><ellipse cx="119.81" cy="45.11" rx="11.74" ry="8.52" transform="translate(70.58 163.28) rotate(-88.01)" style="fill:none;stroke:#000;stroke-linecap:round;stroke-linejoin:round;stroke-width:1.4274200000000001px"></ellipse><path d="M121.36,53.14a3.36,3.36,0,0,1-1.18.19c-2.75-.1-4.86-3.85-4.7-8.37s2.51-8.12,5.27-8a3.31,3.31,0,0,1,1.92.71" style="fill:none;stroke:#000;stroke-linecap:round;stroke-linejoin:round;stroke-width:1.4274200000000001px"></path><path d="M123.79,51.05a5.77,5.77,0,0,1-1.33,1.47" style="fill:none;stroke:#000;stroke-linecap:round;stroke-linejoin:round;stroke-width:1.4274200000000001px"></path></g><g style="opacity:0.2"><ellipse cx="133.55" cy="309.57" rx="15.84" ry="11.49" transform="translate(-180.46 432.31) rotate(-88.01)" style="fill:none;stroke:#000;stroke-linecap:round;stroke-linejoin:round;stroke-width:1.4274200000000001px"></ellipse><path d="M135.65,320.41a4.39,4.39,0,0,1-1.6.25c-3.72-.13-6.56-5.19-6.35-11.29s3.4-11,7.12-10.83a4.54,4.54,0,0,1,2.59,1" style="fill:none;stroke:#000;stroke-linecap:round;stroke-linejoin:round;stroke-width:1.4274200000000001px"></path><path d="M138.92,317.59a8.26,8.26,0,0,1-1.79,2" style="fill:none;stroke:#000;stroke-linecap:round;stroke-linejoin:round;stroke-width:1.4274200000000001px"></path></g><g style="opacity:0.2"><path d="M87.13,407.35c-4.07,2.35-10-.29-13.24-5.9s-2.58-12.07,1.5-14.43,10,.29,13.24,5.9S91.21,405,87.13,407.35Z" style="fill:none;stroke:#000;stroke-linecap:round;stroke-linejoin:round;stroke-width:1.4274200000000001px"></path><path d="M86.83,403.17a3.09,3.09,0,0,1-.9.79c-2.39,1.38-6.16-.68-8.43-4.6s-2.16-8.22.22-9.6a3.36,3.36,0,0,1,2-.42" style="fill:none;stroke:#000;stroke-linecap:round;stroke-linejoin:round;stroke-width:1.4274200000000001px"></path><path d="M87.78,400.11a6,6,0,0,1-.34,2" style="fill:none;stroke:#000;stroke-linecap:round;stroke-linejoin:round;stroke-width:1.4274200000000001px"></path></g><g style="opacity:0.2"><ellipse cx="123.8" cy="400.86" rx="12.5" ry="17.23" transform="translate(-282.97 503.57) rotate(-87.01)" style="fill:none;stroke:#000;stroke-linecap:round;stroke-linejoin:round;stroke-width:1.4274200000000001px"></ellipse><path d="M135.62,398.79a4.68,4.68,0,0,1,.25,1.74c-.21,4-5.76,7-12.4,6.69s-11.85-3.91-11.64-8a5,5,0,0,1,1.1-2.8" style="fill:none;stroke:#000;stroke-linecap:round;stroke-linejoin:round;stroke-width:1.4274200000000001px"></path><path d="M132.62,395.17a8.89,8.89,0,0,1,2.13,2" style="fill:none;stroke:#000;stroke-linecap:round;stroke-linejoin:round;stroke-width:1.4274200000000001px"></path></g><g style="opacity:0.2"><ellipse cx="88.08" cy="119.2" rx="17.23" ry="12.5" transform="matrix(0.53, -0.85, 0.85, 0.53, -59.68, 130.82)" style="fill:none;stroke:#000;stroke-linecap:round;stroke-linejoin:round;stroke-width:1.4274200000000001px"></ellipse><path d="M92,107.86a4.51,4.51,0,0,1,1.64.63c3.43,2.14,3.36,8.45-.16,14.08s-9.15,8.48-12.58,6.34A5,5,0,0,1,79,126.59" style="fill:none;stroke:#000;stroke-linecap:round;stroke-linejoin:round;stroke-width:1.4274200000000001px"></path><path d="M87.38,108.73a9.14,9.14,0,0,1,2.77-.9" style="fill:none;stroke:#000;stroke-linecap:round;stroke-linejoin:round;stroke-width:1.4274200000000001px"></path></g></g><g id="freepik--Shadow--inject-68"><ellipse cx="243.79" cy="444.25" rx="63.12" ry="15.48" style="fill:#263238"></ellipse></g><g id="freepik--Body--inject-68"><path d="M263.54,80.2s.79-11.11-4.37-17.86S242.12,55.6,237,57.58s-10.31,5.56-11.5,11.51a61.49,61.49,0,0,0-.8,13.09s-4,.79-2.77,5.16a16.19,16.19,0,0,0,3.57,6.74s1.19,5.55,2,7.93,5.16,7.54,5.16,7.54.79,6-2,7.93-9.52,3.58-19,6.75-18.25,11.5-20.23,22.21a68,68,0,0,0-.79,19.44L187,188.49a59.84,59.84,0,0,0-4,19.44c-.4,11.11-1,27.52-1,27.52s1,7.39-4.59,10.17-6,4.76-6.75,6.74-1.19,5.95-2.78,7.14-6.74,0-6,4,6.35,1.59,6.35,1.59l3.57-.8v20.23c0,2,1.19,4.76,3.18,2.38,0,0,2,2.78,3.17,1.59l1.93-1.11s2.35,1,3.45.55,3.31-3.45,3.31-3.45.55,1.65,2.62-.83,2.34-5.51,2.89-7.58,2.35-13.38,2.9-15.31,0-12.13,0-12.13l-.41-4.41s9-24.41,10.48-30.2,3.17-11.86,3.72-16.83a117.13,117.13,0,0,1,2.67-13l1.27-4.46s.06,25.58-.49,28.61-4.69,8.69-4.28,15.86-2.07,19.31-2.76,23.44-5.93,18.2-3.72,41.23,6.82,35.94,9.5,46.18,1.95,16.82.74,26.57.73,14.14,4.14,26.57,9.51,25.59,10.24,30.47-1.47,5.36-2.68,8.28-7.8,10.49-8.05,13.65,1.95,5.61,8.05,7.32,10.48,1.7,13.4-2.2,3.17-6.33,2.93-9.26-1-3.41,0-6.09,2.19-4.15,1.46-8.78-.24-.49-2.19-10,.24-21.94.24-27.3,0-18-1.22-24.38-1.46-3.41-2.19-12.18.48-9.75.48-16.09a51.51,51.51,0,0,0-1.21-11.21s4.87-25.35,5.11-26.33,3.9-17.79,3.9-17.79a2.69,2.69,0,0,1,2,1.46c.49,1.22,6.83,42.41,6.83,42.41s-2.44,6.58-2.19,11S254,348,254,348s-2,7.8-3.66,20,1,24.86.74,32.42A72.39,72.39,0,0,1,249.36,415c-.73,3.41-2,8.29-.73,11.94l1.22,3.66a52.72,52.72,0,0,0-.73,10c.24,4.39,2.19,7.32,5.11,7.8s4.88-2.19,4.88-2.19a9.9,9.9,0,0,0,7.55,1c4.15-1.22,7.07-2.93,6.1-6.34a25.58,25.58,0,0,0-4.39-9.51c-2.68-3.65-4.39-4.14-5.12-8.53a27.43,27.43,0,0,1,1-13.41c1.46-3.9,7.8-15.84,10.72-31.68s2.44-16.82,1.71-22.43-.25-17.55,1-23.64,9.75-28,9.75-45.82-3.65-39.73-4.63-43.63a107.88,107.88,0,0,1-1.7-11.46s1.46-5.85,0-11-2.44-7.07-3.66-12.67a142.47,142.47,0,0,1-2.19-14.87V182.7s4.63,11.21,6.82,19,2.19,12.43,4.63,19.75,7.56,21,8.53,23.88-1.22,8-.24,15.85,1.95,21.2,3.66,23.15,3.65-.24,3.65-.24.73,3.9,2.2,4.39,3.41-1,3.41-1a2,2,0,0,0,2.92,1.46,4.7,4.7,0,0,0,2.93-2.68s3.65,1.47,3.17-3.41-1.71-11.46-1.71-12.92.24-6.09.24-6.09,2.44,1.95,4.39,2.19,3.9,2.2,5.36,0,.25-2.92-2.43-4.63-2.93-2.19-4.88-5.12-.24-3.65-4.39-7.31-6.82-5.36-6.82-8.53,3.17-22.91.24-37.05-4.38-17.79-4.87-20-4.88-18.77-4.88-18.77,3.9-15.35-2.92-28.27-16.09-11.94-23.16-15.11-12.67-3.9-13.65-5.85a22.37,22.37,0,0,1-1.46-5.36s6.34-8.78,6.58-11.7l.24-2.93s3.9-1.46,4.88-9S263.54,80.2,263.54,80.2Z" style="fill:#fff"></path><path d="M263.54,80.2s.79-11.11-4.37-17.86S242.12,55.6,237,57.58s-10.31,5.56-11.5,11.51a61.49,61.49,0,0,0-.8,13.09s-4,.79-2.77,5.16a16.19,16.19,0,0,0,3.57,6.74s1.19,5.55,2,7.93,5.16,7.54,5.16,7.54.79,6-2,7.93-9.52,3.58-19,6.75-18.25,11.5-20.23,22.21a68,68,0,0,0-.79,19.44L187,188.49a59.84,59.84,0,0,0-4,19.44c-.4,11.11-1,27.52-1,27.52s1,7.39-4.59,10.17-6,4.76-6.75,6.74-1.19,5.95-2.78,7.14-6.74,0-6,4,6.35,1.59,6.35,1.59l3.57-.8v20.23c0,2,1.19,4.76,3.18,2.38,0,0,2,2.78,3.17,1.59l1.93-1.11s2.35,1,3.45.55,3.31-3.45,3.31-3.45.55,1.65,2.62-.83,2.34-5.51,2.89-7.58,2.35-13.38,2.9-15.31,0-12.13,0-12.13l-.41-4.41s9-24.41,10.48-30.2,3.17-11.86,3.72-16.83a117.13,117.13,0,0,1,2.67-13l1.27-4.46s.06,25.58-.49,28.61-4.69,8.69-4.28,15.86-2.07,19.31-2.76,23.44-5.93,18.2-3.72,41.23,6.82,35.94,9.5,46.18,1.95,16.82.74,26.57.73,14.14,4.14,26.57,9.51,25.59,10.24,30.47-1.47,5.36-2.68,8.28-7.8,10.49-8.05,13.65,1.95,5.61,8.05,7.32,10.48,1.7,13.4-2.2,3.17-6.33,2.93-9.26-1-3.41,0-6.09,2.19-4.15,1.46-8.78-.24-.49-2.19-10,.24-21.94.24-27.3,0-18-1.22-24.38-1.46-3.41-2.19-12.18.48-9.75.48-16.09a51.51,51.51,0,0,0-1.21-11.21s4.87-25.35,5.11-26.33,3.9-17.79,3.9-17.79a2.69,2.69,0,0,1,2,1.46c.49,1.22,6.83,42.41,6.83,42.41s-2.44,6.58-2.19,11S254,348,254,348s-2,7.8-3.66,20,1,24.86.74,32.42A72.39,72.39,0,0,1,249.36,415c-.73,3.41-2,8.29-.73,11.94l1.22,3.66a52.72,52.72,0,0,0-.73,10c.24,4.39,2.19,7.32,5.11,7.8s4.88-2.19,4.88-2.19a9.9,9.9,0,0,0,7.55,1c4.15-1.22,7.07-2.93,6.1-6.34a25.58,25.58,0,0,0-4.39-9.51c-2.68-3.65-4.39-4.14-5.12-8.53a27.43,27.43,0,0,1,1-13.41c1.46-3.9,7.8-15.84,10.72-31.68s2.44-16.82,1.71-22.43-.25-17.55,1-23.64,9.75-28,9.75-45.82-3.65-39.73-4.63-43.63a107.88,107.88,0,0,1-1.7-11.46s1.46-5.85,0-11-2.44-7.07-3.66-12.67a142.47,142.47,0,0,1-2.19-14.87V182.7s4.63,11.21,6.82,19,2.19,12.43,4.63,19.75,7.56,21,8.53,23.88-1.22,8-.24,15.85,1.95,21.2,3.66,23.15,3.65-.24,3.65-.24.73,3.9,2.2,4.39,3.41-1,3.41-1a2,2,0,0,0,2.92,1.46,4.7,4.7,0,0,0,2.93-2.68s3.65,1.47,3.17-3.41-1.71-11.46-1.71-12.92.24-6.09.24-6.09,2.44,1.95,4.39,2.19,3.9,2.2,5.36,0,.25-2.92-2.43-4.63-2.93-2.19-4.88-5.12-.24-3.65-4.39-7.31-6.82-5.36-6.82-8.53,3.17-22.91.24-37.05-4.38-17.79-4.87-20-4.88-18.77-4.88-18.77,3.9-15.35-2.92-28.27-16.09-11.94-23.16-15.11-12.67-3.9-13.65-5.85a22.37,22.37,0,0,1-1.46-5.36s6.34-8.78,6.58-11.7l.24-2.93s3.9-1.46,4.88-9S263.54,80.2,263.54,80.2Z" style="fill:none;stroke:#263238;stroke-miterlimit:10"></path></g><g id="freepik--circulatory-system--inject-68"><path d="M298.42,252.3a13.1,13.1,0,0,1-1.38-5.54,44.06,44.06,0,0,1,.18-5.64c.14-1.89.44-3.74.75-5.59s.66-3.67,1-5.51h0a.72.72,0,0,1,.85-.54.71.71,0,0,1,.53.5c1.18,4.25,2.22,8.51,3.07,12.83.4,2.16.76,4.33,1,6.53.06.55.11,1.1.12,1.66a15.48,15.48,0,0,1,0,1.67c0,1.13-.17,2.21-.28,3.3a104.07,104.07,0,0,0-1,13.06,31.49,31.49,0,0,0,.66,6.49,11.34,11.34,0,0,0,2.9,5.76,11.44,11.44,0,0,1-3.07-5.72A31.83,31.83,0,0,1,303,269a104.58,104.58,0,0,1,.63-13.13c.58-4.34-.28-8.61-1.17-12.88s-2.1-8.47-3.39-12.62l1.38,0h0q-.64,2.7-1.2,5.42c-.37,1.82-.71,3.64-.91,5.46a42.68,42.68,0,0,0-.36,5.5,12.36,12.36,0,0,0,1.13,5.25.36.36,0,0,1-.64.33Z" style="fill:#263238"></path><path d="M282.89,133.57a11.88,11.88,0,0,1,2.9,2c.42.37.81.79,1.21,1.18l1.09,1.28a28.78,28.78,0,0,1,3.4,5.72,44.8,44.8,0,0,1,3.38,12.7c.19,1.08.27,2.17.36,3.26s.22,2.17.23,3.26c.05,2.18.15,4.39.09,6.53a126.12,126.12,0,0,0,.53,12.9,56,56,0,0,0,1,6.34c.47,2,1.14,4.15,1.68,6.24,1.12,4.19,2.16,8.4,3.09,12.63s1.76,8.5,2.37,12.81a58,58,0,0,1,.58,13,.33.33,0,0,1-.36.3.35.35,0,0,1-.31-.36v0a58.26,58.26,0,0,0-.83-12.83c-.65-4.26-1.52-8.49-2.5-12.7s-2.06-8.39-3.22-12.55c-.57-2.1-1.25-4.11-1.76-6.28a55.33,55.33,0,0,1-1-6.49,126.31,126.31,0,0,1-.6-13c.05-2.19-.05-4.3-.11-6.45,0-1.07-.17-2.14-.24-3.21s-.18-2.13-.37-3.19a44.09,44.09,0,0,0-3.31-12.3,27,27,0,0,0-3.2-5.42l-1-1.19c-.37-.36-.72-.75-1.11-1.09a10.76,10.76,0,0,0-2.46-1.68l-.08,0a.72.72,0,0,1-.35-1A.71.71,0,0,1,282.89,133.57Z" style="fill:#263238"></path><path d="M256.6,148.24a5.07,5.07,0,0,0,3.66-.91,6.25,6.25,0,0,0,2.1-3.32,15.4,15.4,0,0,0,.52-4.2l.06-2.27c.09-.76.11-1.52.26-2.28a16.43,16.43,0,0,1,1.38-4.42,8.2,8.2,0,0,1,3.24-3.47,6.73,6.73,0,0,1,4.73-.59,6.08,6.08,0,0,1,1.13.31,8,8,0,0,1,1.1.41,15.76,15.76,0,0,1,2,1.09,36.16,36.16,0,0,1,6.84,5.9,23.18,23.18,0,0,1,4.82,7.66,16.85,16.85,0,0,1,.65,9,30,30,0,0,1-3.16,8.45c-1.47,2.63-3.07,5.07-3.94,7.86a14.78,14.78,0,0,0-.27,8.51,22.32,22.32,0,0,0,4.28,7.56c.91,1.15,1.88,2.29,2.75,3.52s1.7,2.43,2.52,3.68a68.09,68.09,0,0,1,7.9,16,48.78,48.78,0,0,1,2.56,17.61.23.23,0,0,1-.24.22.23.23,0,0,1-.22-.24,48.35,48.35,0,0,0-2.65-17.4,67.9,67.9,0,0,0-7.94-15.78c-.82-1.22-1.67-2.43-2.53-3.64s-1.82-2.3-2.75-3.47a23,23,0,0,1-4.47-7.8,15.71,15.71,0,0,1,.22-9c.88-2.91,2.56-5.5,3.95-8a29,29,0,0,0,3-8.18,15.82,15.82,0,0,0-.66-8.49,22,22,0,0,0-4.65-7.26,34.88,34.88,0,0,0-6.63-5.65,15.4,15.4,0,0,0-1.88-1,9.85,9.85,0,0,0-1-.36,5.4,5.4,0,0,0-1-.27,5.51,5.51,0,0,0-3.9.5,7,7,0,0,0-2.7,2.95,15,15,0,0,0-1.22,4.06c-.13.7-.15,1.42-.23,2.14l0,2.18a17.27,17.27,0,0,1-.54,4.6,7.65,7.65,0,0,1-2.59,4,6.46,6.46,0,0,1-4.76,1.19.7.7,0,0,1-.6-.8.71.71,0,0,1,.8-.61h.07Z" style="fill:#263238"></path><path d="M294.68,233.37a124.31,124.31,0,0,0-1.22-12.76,66.11,66.11,0,0,0-2.88-12.42,24.7,24.7,0,0,0-2.77-5.65,20.48,20.48,0,0,1-2.66-6,27.5,27.5,0,0,1-.23-13.07.72.72,0,0,1,1.4.31h0v.06a26.21,26.21,0,0,0,0,12.39,19.66,19.66,0,0,0,2.41,5.75,26.47,26.47,0,0,1,2.77,5.9,68,68,0,0,1,2.67,12.64,128.3,128.3,0,0,1,1,12.84.21.21,0,0,1-.42,0Z" style="fill:#263238"></path><path d="M190.74,252a12.51,12.51,0,0,0,1.11-5.3,42.93,42.93,0,0,0-.39-5.52c-.21-1.82-.57-3.64-1-5.45s-.79-3.63-1.23-5.42l1.37,0c-1.14,4.19-2.23,8.42-3.12,12.68-.44,2.12-.85,4.26-1.1,6.39-.06.53-.12,1.07-.15,1.6a14,14,0,0,0-.05,1.58c0,1,.07,2.18.09,3.27a75.47,75.47,0,0,1-.73,13.18,33.72,33.72,0,0,1-1.61,6.42,13.59,13.59,0,0,1-3.52,5.53,13.38,13.38,0,0,0,3.08-5.68,34.49,34.49,0,0,0,1.24-6.37,82.14,82.14,0,0,0,.2-13c0-1.1-.17-2.14-.19-3.29a13.75,13.75,0,0,1,0-1.7c0-.56.07-1.12.12-1.67.23-2.21.59-4.39,1-6.56.91-4.31,2-8.56,3.33-12.77l.11-.35a.67.67,0,0,1,1.27.4h0c.37,1.84.7,3.67,1,5.52s.58,3.7.71,5.59a43.87,43.87,0,0,1,.15,5.63,13.09,13.09,0,0,1-1.4,5.48.23.23,0,0,1-.31.09A.24.24,0,0,1,190.74,252Z" style="fill:#263238"></path><path d="M207.3,134.91a10.76,10.76,0,0,0-2.47,1.67c-.39.34-.74.72-1.12,1.08l-1,1.19a26.87,26.87,0,0,0-3.23,5.42,43.7,43.7,0,0,0-3.35,12.31c-.19,1-.28,2.12-.37,3.19s-.23,2.14-.26,3.21c0,2.16-.16,4.28-.12,6.46a125.82,125.82,0,0,1-.62,13,54.74,54.74,0,0,1-1,6.47c-.51,2.16-1.18,4.18-1.74,6.28-1.16,4.16-2.24,8.35-3.21,12.56s-1.84,8.44-2.48,12.71a57.87,57.87,0,0,0-.76,12.86h0a.28.28,0,0,1-.26.31.3.3,0,0,1-.31-.26,58.45,58.45,0,0,1,.66-13c.61-4.29,1.45-8.55,2.38-12.79s2-8.43,3.12-12.62c.54-2.09,1.21-4.19,1.68-6.25a53.85,53.85,0,0,0,.94-6.36,123.51,123.51,0,0,0,.52-12.91c-.07-2.14,0-4.35.07-6.52,0-1.09.15-2.18.22-3.26s.17-2.18.35-3.26a45.28,45.28,0,0,1,3.35-12.68,28.2,28.2,0,0,1,3.36-5.73l1.08-1.28c.41-.4.79-.81,1.21-1.19a12.27,12.27,0,0,1,2.88-2,.72.72,0,0,1,.95.35.71.71,0,0,1-.35,1h0Z" style="fill:#263238"></path><path d="M233.34,149.64a6.44,6.44,0,0,1-4.76-1.19,7.69,7.69,0,0,1-2.58-4,16.88,16.88,0,0,1-.55-4.6l0-2.18c-.08-.71-.1-1.44-.24-2.14a15.08,15.08,0,0,0-1.22-4,7.07,7.07,0,0,0-2.69-3,5.48,5.48,0,0,0-3.89-.49,4.52,4.52,0,0,0-1,.28,7.29,7.29,0,0,0-1,.35,15.4,15.4,0,0,0-1.88,1,34.82,34.82,0,0,0-6.62,5.66,21.86,21.86,0,0,0-4.64,7.25,15.8,15.8,0,0,0-.65,8.46,29.23,29.23,0,0,0,3,8.17c1.39,2.53,3.07,5.13,4,8.05a15.69,15.69,0,0,1,.23,9,23.17,23.17,0,0,1-4.48,7.83c-.93,1.17-1.9,2.29-2.74,3.47s-1.71,2.42-2.53,3.64A67.57,67.57,0,0,0,191.11,207a48.15,48.15,0,0,0-2.63,17.36h0a.33.33,0,0,1-.32.34.33.33,0,0,1-.34-.32,48.87,48.87,0,0,1,2.58-17.63,68.17,68.17,0,0,1,7.92-16c.82-1.24,1.67-2.47,2.52-3.67s1.85-2.37,2.76-3.53a22.34,22.34,0,0,0,4.27-7.53,14.68,14.68,0,0,0-.27-8.48c-.86-2.77-2.46-5.21-3.93-7.85a30.35,30.35,0,0,1-3.15-8.46,16.91,16.91,0,0,1,.65-9.05,23,23,0,0,1,4.84-7.67,35.5,35.5,0,0,1,6.84-5.9,18.12,18.12,0,0,1,2-1.1,9.55,9.55,0,0,1,1.1-.4,5.32,5.32,0,0,1,1.14-.31,6.72,6.72,0,0,1,4.74.6,8.26,8.26,0,0,1,3.25,3.48,16.76,16.76,0,0,1,1.37,4.42c.15.76.17,1.52.26,2.28l.06,2.27a15.4,15.4,0,0,0,.51,4.2,6.35,6.35,0,0,0,2.1,3.32,5.07,5.07,0,0,0,3.66.91h.07a.71.71,0,0,1,.19,1.41Z" style="fill:#263238"></path><path d="M194.45,233.36a128.57,128.57,0,0,1,1-12.85,68.05,68.05,0,0,1,2.7-12.65,26.58,26.58,0,0,1,2.78-5.91,19.6,19.6,0,0,0,2.43-5.73,26.3,26.3,0,0,0,0-12.38l0-.06a.72.72,0,0,1,.53-.86.71.71,0,0,1,.86.53h0a27.42,27.42,0,0,1-.19,13.08,20.63,20.63,0,0,1-2.65,6,24.86,24.86,0,0,0-2.76,5.65,66.71,66.71,0,0,0-2.84,12.41,124.25,124.25,0,0,0-1.19,12.76h0a.33.33,0,0,1-.35.31A.34.34,0,0,1,194.45,233.36Z" style="fill:#263238"></path><path d="M243.51,224.71a8.79,8.79,0,0,0-1.68-.41,14,14,0,0,0-1.84-.17,16.15,16.15,0,0,0-3.73.35,20.67,20.67,0,0,0-7,3,30.09,30.09,0,0,0-5.86,5.07,33.32,33.32,0,0,0-4.32,6.51,91.94,91.94,0,0,0-5.88,14.78,158.63,158.63,0,0,0-4,15.5h0a.36.36,0,0,1-.7-.13,159.06,159.06,0,0,1,3.6-15.69,91.45,91.45,0,0,1,5.58-15.17,34.43,34.43,0,0,1,4.36-7,32,32,0,0,1,6.1-5.57,22.72,22.72,0,0,1,7.61-3.48,18.2,18.2,0,0,1,4.23-.51,15.67,15.67,0,0,1,2.16.14,11.09,11.09,0,0,1,2.22.5,1.2,1.2,0,1,1-.78,2.27h0Z" style="fill:#263238"></path><path d="M221.64,162a30.1,30.1,0,0,1,2-4.1,30.68,30.68,0,0,1,2.65-3.79,36.36,36.36,0,0,1,3.15-3.43,30.66,30.66,0,0,1,3.66-3.05l-.37,2h0a12,12,0,0,0-2-2,11.31,11.31,0,0,0-2.44-1.49,8.77,8.77,0,0,0-5.61-.54l-.07,0a.64.64,0,0,1-.63-.19h0a11.06,11.06,0,0,1-1-1.44,15.71,15.71,0,0,1-.81-1.51,10.22,10.22,0,0,1-.89-3.25,9.84,9.84,0,0,0,1.51,2.89,13.52,13.52,0,0,0,1,1.23,11.15,11.15,0,0,0,1.15,1h0l-.7-.17a10.51,10.51,0,0,1,6.74,0,13.29,13.29,0,0,1,3.09,1.47,14.1,14.1,0,0,1,2.69,2.21h0l.08.1a1.28,1.28,0,0,1-.24,1.79,1.48,1.48,0,0,1-.21.13,29.24,29.24,0,0,0-3.71,2.26,34,34,0,0,0-3.45,2.8,30.67,30.67,0,0,0-3.08,3.26A28.28,28.28,0,0,0,221.64,162Z" style="fill:#263238"></path><path d="M216.92,148.74a28,28,0,0,1,5.3-4.41.71.71,0,0,1,.76,1.21l-.13.07h0A27.75,27.75,0,0,0,216.92,148.74Z" style="fill:#263238"></path><path d="M255.63,124.16a38.62,38.62,0,0,1-6.49-10,17.09,17.09,0,0,1-.95-2.91,10.48,10.48,0,0,1,0-3.11,30.55,30.55,0,0,0,.41-5.75c-.29-3.84-.87-7.76-1.07-11.68a35.43,35.43,0,0,1,.93-11.81.44.44,0,0,1,.84.24h0a34.28,34.28,0,0,0-.76,11.49c.24,3.89.86,7.73,1.21,11.68a31.53,31.53,0,0,1-.35,6,9.2,9.2,0,0,0,0,2.73,17.37,17.37,0,0,0,.9,2.66,37.69,37.69,0,0,0,6.36,9.53l0,0a.71.71,0,1,1-1.06,1Z" style="fill:#263238"></path><path d="M248.47,101.92q1.41-3.84,3-7.6c1-2.52,2.16-5,3.35-7.47a38.16,38.16,0,0,0,3-7.44,29.49,29.49,0,0,0,.86-3.92,16.16,16.16,0,0,0,.14-4h0a.18.18,0,0,1,.16-.2.2.2,0,0,1,.2.15,19.7,19.7,0,0,1-.3,8.23,35.9,35.9,0,0,1-2.73,7.8c-1.14,2.45-2.15,5-3.21,7.46l-3.12,7.51a.71.71,0,0,1-1.33-.52Z" style="fill:#263238"></path><path d="M250.24,63.31c3.15,0,8.35,3.7,8.86,9" style="fill:none;stroke:#263238;stroke-linecap:round;stroke-linejoin:round;stroke-width:0.5px"></path><path d="M250.78,71.47s5-1.84,8.26.4" style="fill:none;stroke:#263238;stroke-linecap:round;stroke-linejoin:round;stroke-width:0.5px"></path><path d="M247.3,66.22s7.06-1,11,3.09" style="fill:none;stroke:#263238;stroke-linecap:round;stroke-linejoin:round;stroke-width:0.5px"></path><path d="M223.84,129.93a47.41,47.41,0,0,0,10.7-9.31,21.24,21.24,0,0,0,3.56-6c.16-.55.38-1.09.49-1.64l.26-1.68c.1-1.24.28-2.45.45-3.65s.33-2.38.46-3.57.2-2.39.37-3.62c.31-2.42.72-4.79,1-7.18a53.74,53.74,0,0,0,.52-7.15,24.4,24.4,0,0,0-.93-7.07.22.22,0,0,1,.14-.28.24.24,0,0,1,.28.13c1.73,4.63,1.62,9.69,1.18,14.5-.23,2.42-.58,4.83-.83,7.21l-.3,3.61c-.12,1.21-.27,2.42-.43,3.62s-.31,2.38-.39,3.56c-.08.62-.18,1.26-.28,1.9s-.35,1.22-.52,1.84a22.37,22.37,0,0,1-3.81,6.43,46.22,46.22,0,0,1-11.19,9.54.72.72,0,0,1-1-.23.72.72,0,0,1,.22-1Z" style="fill:#263238"></path><path d="M240,102.35c-.63-3-1.34-6.07-2.13-9.08-.39-1.51-.81-3-1.27-4.49a35.85,35.85,0,0,0-1.63-4.37,34.09,34.09,0,0,1,2,4.25q.87,2.18,1.63,4.4c1,3,1.95,5.94,2.83,9a.72.72,0,0,1-.49.89.71.71,0,0,1-.88-.49l0,0Z" style="fill:#263238"></path><path d="M228.73,426.31c-4.19-22.27-4.54-44.94-3.3-67.37.68-11.08-.75-22.19-2.78-33.17s-4.52-22-5.46-33.26a96,96,0,0,1,0-16.95A64.22,64.22,0,0,1,221.16,259a87.52,87.52,0,0,1,18.17-28.39,22.62,22.62,0,0,0,4.19-6.92,20.51,20.51,0,0,0,1.07-3.88,14.17,14.17,0,0,0,.13-3.9,24.79,24.79,0,0,0-2.37-7.61c-1.14-2.49-2.46-5-3.5-7.71a36.88,36.88,0,0,1-2-8.49,48.13,48.13,0,0,1-.33-8.65,49.08,49.08,0,0,1,3.78-16.71h0l-.06.25c0-1-.07-2.12-.15-3.17s-.14-2.1-.27-3.14-.26-2.07-.48-3.06a11.24,11.24,0,0,0-.87-2.77,11.45,11.45,0,0,0-1.7-2.35,30.12,30.12,0,0,0-2.18-2.2c-1.54-1.41-3.19-2.77-4.85-4.07h0a.73.73,0,0,1-.12-1,.71.71,0,0,1,.91-.18,36.45,36.45,0,0,1,5.46,3.67,17.69,17.69,0,0,1,4.58,5.1,13.36,13.36,0,0,1,1.05,3.37,23.61,23.61,0,0,1,.38,3.32,37.07,37.07,0,0,1-.18,6.58,1.12,1.12,0,0,1,0,.21l0,0h0a55.77,55.77,0,0,0-1.71,8,62.46,62.46,0,0,0-.64,8.18,53.73,53.73,0,0,0,.53,8.13,39.16,39.16,0,0,0,1.89,7.82c.94,2.52,2.13,5.05,3.17,7.72a27.1,27.1,0,0,1,2,8.54,16.29,16.29,0,0,1-.44,4.46,25.55,25.55,0,0,1-1.41,4.14,26.87,26.87,0,0,1-4.65,7.28,92,92,0,0,0-10.27,13.14,79,79,0,0,0-7.51,14.81,62.58,62.58,0,0,0-3.79,16.11,94.26,94.26,0,0,0,0,16.63c1,11.1,3.5,22,5.63,33.05s3.71,22.3,3.12,33.65a309.19,309.19,0,0,0,.06,33.49,228.08,228.08,0,0,0,4.18,33.11h0a1.63,1.63,0,1,1-3.2.67Z" style="fill:#263238"></path><path d="M234.41,238a19.52,19.52,0,0,1,1.78,4.86,25.37,25.37,0,0,1,.69,5,27.57,27.57,0,0,1-.29,5.06c-.09.84-.31,1.66-.47,2.48s-.46,1.62-.68,2.43a.29.29,0,0,1-.35.2.29.29,0,0,1-.2-.34v0c.18-.8.41-1.59.56-2.4s.3-1.62.35-2.44a25.89,25.89,0,0,0,.08-4.9,24.94,24.94,0,0,0-.87-4.79,18.84,18.84,0,0,0-1.82-4.42l0-.05a.72.72,0,1,1,1.23-.73Z" style="fill:#263238"></path><path d="M223.47,255.58s14.18,24.35,9.67,57.93,6.93,51.91-.77,73.37c-3,8.42-.23,22.15.24,28.49.73,9.81-4.17,20.84-4.17,20.84" style="fill:none;stroke:#263238;stroke-linecap:round;stroke-linejoin:round;stroke-width:1.4274200000000001px"></path><path d="M244.34,225.21a35.55,35.55,0,0,1,11,7.91,62.46,62.46,0,0,1,8.25,10.53,77,77,0,0,1,10.12,24.54q.69,3.27,1.07,6.6c.24,2.23.33,4.43.4,6.65a108.28,108.28,0,0,1-.6,13.24c-.93,8.78-2.74,17.38-4.46,25.94a202.29,202.29,0,0,0-3.91,25.79,108.28,108.28,0,0,0-.14,13c.18,4.39.32,8.79.18,13.18s-.34,8.78-.75,13.15-.95,8.73-1.63,13.06c-1.33,8.67-3.23,17.24-5,25.78a.72.72,0,0,1-.84.56.71.71,0,0,1-.56-.84c1.74-8.59,3.57-17.12,4.84-25.74.65-4.31,1.17-8.63,1.53-13s.6-8.69.66-13,0-8.7-.26-13a110,110,0,0,1,.05-13.22,205.12,205.12,0,0,1,3.76-26.07c1.66-8.59,3.4-17.14,4.25-25.76a103.85,103.85,0,0,0,.5-12.95c-.08-2.15-.18-4.32-.43-6.44s-.61-4.24-1.07-6.33a74.61,74.61,0,0,0-9.94-23.65,59.93,59.93,0,0,0-8-10,32.69,32.69,0,0,0-10.18-7.21h0a1.43,1.43,0,1,1,1.1-2.63Z" style="fill:#263238"></path><path d="M258.55,238.71a18.8,18.8,0,0,0-1.87,4.4,24.34,24.34,0,0,0-.92,4.81,26.09,26.09,0,0,0,0,4.92c0,.83.22,1.64.33,2.46s.37,1.61.54,2.42h0a.09.09,0,0,1-.06.1.09.09,0,0,1-.1-.06c-.23-.8-.5-1.59-.69-2.41s-.4-1.62-.5-2.46a26.37,26.37,0,0,1-.34-5,26,26,0,0,1,.63-5,20,20,0,0,1,1.73-4.87.72.72,0,0,1,1-.3.71.71,0,0,1,.3,1l0,0Z" style="fill:#263238"></path><path d="M268.28,255.58s-14.19,24.35-9.67,57.93-6.94,51.91.77,73.37c3,8.42-.91,21.55-1.38,27.89-.73,9.81,4.17,20.84,4.17,20.84" style="fill:none;stroke:#263238;stroke-linecap:round;stroke-linejoin:round;stroke-width:1.4274200000000001px"></path><path d="M236.34,150.5a65.34,65.34,0,0,0,4.6-12.73c.27-1.09.49-2.19.67-3.3l.17-.92a8.32,8.32,0,0,1,.27-1,10.06,10.06,0,0,1,.86-1.85,15.14,15.14,0,0,1,5.53-5.19,25.52,25.52,0,0,1,6.79-2.69,27.63,27.63,0,0,1,7.19-.79,20.82,20.82,0,0,1,7.13,1.39,13.86,13.86,0,0,1,5.87,4.33.7.7,0,0,1-.12,1,.72.72,0,0,1-1-.11,12.31,12.31,0,0,0-5.37-3.61,18.73,18.73,0,0,0-6.53-1,24.85,24.85,0,0,0-12.62,3.68,12.52,12.52,0,0,0-4.38,4.39,7.19,7.19,0,0,0-.55,1.33c-.07.23-.11.46-.16.69l-.11.79c-.16,1.19-.36,2.38-.61,3.55A68,68,0,0,1,239.5,152a1.76,1.76,0,1,1-3.21-1.44l0,0Z" style="fill:#263238"></path><path d="M274.59,154.41a52.21,52.21,0,0,0-8.42,1.94,27,27,0,0,0-4,1.59,13,13,0,0,0-3.41,2.31h0a.71.71,0,0,1-1-1l0,0a14.3,14.3,0,0,1,3.91-2.34,28,28,0,0,1,4.2-1.4,52.85,52.85,0,0,1,8.64-1.45.19.19,0,0,1,.21.17.18.18,0,0,1-.16.21Z" style="fill:#263238"></path><path d="M265.77,155.81a6.41,6.41,0,0,1,1.65,1,5.8,5.8,0,0,1,1.23,1.39,4.87,4.87,0,0,1,.69,1.69,5.9,5.9,0,0,1,.12,1.77,6.14,6.14,0,0,0-.36-1.7,4.45,4.45,0,0,0-.85-1.46,5.06,5.06,0,0,0-1.27-1.08,5.24,5.24,0,0,0-1.48-.62h0a.5.5,0,0,1-.37-.6.49.49,0,0,1,.6-.37Z" style="fill:#263238"></path><path d="M266.05,148.88a12.55,12.55,0,0,0-1.43,3.75,18.34,18.34,0,0,0-.42,4,.72.72,0,1,1-1.43,0v-.11a20.57,20.57,0,0,1,1.05-4.1,13.07,13.07,0,0,1,2-3.67.14.14,0,0,1,.18,0,.13.13,0,0,1,0,.16Z" style="fill:#263238"></path><path d="M238.21,190.43a66.93,66.93,0,0,0-8.81,2,35.12,35.12,0,0,0-4.23,1.56,16.55,16.55,0,0,0-3.83,2.27h0a.3.3,0,0,1-.44,0,.3.3,0,0,1,0-.43,17.06,17.06,0,0,1,3.89-2.55,37,37,0,0,1,4.27-1.79c1.44-.52,2.91-1,4.39-1.38s3-.78,4.5-1.09a.71.71,0,1,1,.28,1.4h0Z" style="fill:#263238"></path><path d="M222.47,186.52a23.66,23.66,0,0,0,3.43,2.83,9.6,9.6,0,0,0,3.85,1.64h0a.71.71,0,0,1,.62.8.73.73,0,0,1-.81.62l-.11,0a10.71,10.71,0,0,1-4-2.48A23.88,23.88,0,0,1,222.47,186.52Z" style="fill:#263238"></path><path d="M245.84,214s-13.89,2.6-17.05,5.28" style="fill:none;stroke:#263238;stroke-linecap:round;stroke-linejoin:round;stroke-width:1.4274200000000001px"></path><path d="M234.51,216.75a10.32,10.32,0,0,0-1.95,4.81" style="fill:none;stroke:#263238;stroke-linecap:round;stroke-linejoin:round;stroke-width:1.4274200000000001px"></path><path d="M223.47,219a8.69,8.69,0,0,1,6.14-.26" style="fill:none;stroke:#263238;stroke-linecap:round;stroke-linejoin:round;stroke-width:1.4274200000000001px"></path><path d="M232.56,217.4s-2.22-2-6.92-2" style="fill:none;stroke:#263238;stroke-linecap:round;stroke-linejoin:round;stroke-width:1.4274200000000001px"></path><path d="M215.07,246.41A115.91,115.91,0,0,0,224.21,293c10.36,24.52-10.92,56.18-4.59,85" style="fill:none;stroke:#263238;stroke-linecap:round;stroke-linejoin:round;stroke-width:1.4274200000000001px"></path><path d="M236.85,165.25a41.67,41.67,0,0,0-5.4-.53,54.59,54.59,0,0,0-10.93.71c-1.81.28-3.59.7-5.37,1.16h0a.46.46,0,0,1-.55-.32.45.45,0,0,1,.32-.54,55.74,55.74,0,0,1,5.43-1.31,54.28,54.28,0,0,1,5.54-.78,55.06,55.06,0,0,1,5.6-.21,41.38,41.38,0,0,1,5.63.42.71.71,0,1,1-.21,1.41h-.05Z" style="fill:#263238"></path><path d="M221.47,165.72a22.65,22.65,0,0,0-1.42,2.62,25.08,25.08,0,0,0-1.11,2.8,21,21,0,0,0-.72,2.91,17.65,17.65,0,0,0-.24,3v0a.29.29,0,0,1-.29.29.3.3,0,0,1-.29-.29,18,18,0,0,1,.14-3.11,19.57,19.57,0,0,1,.65-3,23.17,23.17,0,0,1,1-2.93,23.71,23.71,0,0,1,1.4-2.81.5.5,0,0,1,.68-.17.5.5,0,0,1,.18.68v0Z" style="fill:#263238"></path><path d="M224.21,171.25a10.33,10.33,0,0,0-5.17-1.64" style="fill:none;stroke:#263238;stroke-linecap:round;stroke-linejoin:round;stroke-width:0.5px"></path><path d="M214.39,175.76s.8-1.12,3.46-1.58" style="fill:none;stroke:#263238;stroke-linecap:round;stroke-linejoin:round;stroke-width:0.5px"></path><path d="M247.86,143.26a31.61,31.61,0,0,1,1-6.32,24.48,24.48,0,0,1,2.42-5.95,14.86,14.86,0,0,1,4.42-4.86A12.55,12.55,0,0,1,262,124a16.09,16.09,0,0,1,6.46.83,18.62,18.62,0,0,1,5.64,3.16,32.93,32.93,0,0,1,7.82,9.9,63.31,63.31,0,0,1,4.76,11.54c1.24,4.12,1.22,8.39,1.06,12.51-.08,2.06-.23,4.11-.26,6.13a19.4,19.4,0,0,0,.13,3,4.24,4.24,0,0,0,.89,2.38,8.25,8.25,0,0,1,1.78,2.86,22.81,22.81,0,0,1,.92,3.06,46.64,46.64,0,0,1,.9,6.19,104.82,104.82,0,0,1,.22,12.4,31.62,31.62,0,0,0,1.61,11.94c.62,1.93,1.39,3.82,2.11,5.76a17.52,17.52,0,0,1,1.39,6.17,52.13,52.13,0,0,0,.57,6.06c.28,2,.61,4.06.94,6.08.67,4,1.39,8.1,2,12.17.3,2,.6,4.08.78,6.15a23.32,23.32,0,0,1,.1,3.14,9.56,9.56,0,0,1-.23,1.57l-.28,1.52c-.71,4-1.64,8.07-1.53,12.13s1.17,8.07,2,12.08a.31.31,0,0,1-.6.13c-.46-2-.92-4-1.33-6a38.32,38.32,0,0,1-.81-6.16c-.13-4.19.77-8.26,1.45-12.3l.27-1.52a8.82,8.82,0,0,0,.21-1.47,21.94,21.94,0,0,0-.13-3c-.19-2-.5-4-.82-6.08-.65-4.05-1.41-8.09-2.11-12.14-.35-2-.7-4.06-1-6.1a54.68,54.68,0,0,1-.64-6.2,16.09,16.09,0,0,0-1.36-5.77c-.73-1.91-1.53-3.82-2.18-5.8A32.78,32.78,0,0,1,291,197.91a106.1,106.1,0,0,0-.32-12.23,47.7,47.7,0,0,0-.92-6c-.48-1.91-1.08-3.92-2.34-5.17a4.05,4.05,0,0,1-1-1.6,8.3,8.3,0,0,1-.39-1.64,23.14,23.14,0,0,1-.17-3.19c0-2.09.15-4.14.22-6.18.13-4.07.09-8.17-1.09-12a61.11,61.11,0,0,0-4.71-11.18,31.11,31.11,0,0,0-7.43-9.29A15.23,15.23,0,0,0,262.16,126a10.52,10.52,0,0,0-5.26,1.82,12.71,12.71,0,0,0-3.77,4.23A26.64,26.64,0,0,0,250,143.33v.06a1.09,1.09,0,0,1-2.18-.13Z" style="fill:#92E3A9"></path><path d="M287.75,172.91a18.89,18.89,0,0,0-2.07,4.73,32.43,32.43,0,0,0-1.08,5.2,41.27,41.27,0,0,0-.32,5.34c0,.89.06,1.79.08,2.69l.22,2.68-.4-2.67c-.08-.89-.2-1.79-.25-2.69a42.61,42.61,0,0,1,0-5.42,33.23,33.23,0,0,1,.76-5.41,19.8,19.8,0,0,1,1.91-5.25.73.73,0,0,1,1-.27.72.72,0,0,1,.27,1l0,0Z" style="fill:#92E3A9"></path><path d="M252.76,129.84a51.25,51.25,0,0,1-2.62-6.67,43.46,43.46,0,0,1-1.69-7,27.53,27.53,0,0,1-.26-7.26,13.83,13.83,0,0,1,2.55-7l.6-.74.56-.66c.39-.43.75-.88,1.1-1.34.72-.9,1.38-1.84,2-2.8a37.25,37.25,0,0,0,3.21-6.13,28.84,28.84,0,0,0,1.92-6.6,23.19,23.19,0,0,0,0-7,17.91,17.91,0,0,1,1,7.06,24,24,0,0,1-1.59,7,37.15,37.15,0,0,1-3.22,6.43c-.65,1-1.32,2-2.06,3-.36.48-.73,1-1.12,1.41l-.57.69-.5.64a13,13,0,0,0-2.18,6.17,26.42,26.42,0,0,0,.23,6.81,56.85,56.85,0,0,0,3.93,13.29v0a.73.73,0,0,1-.38.94A.71.71,0,0,1,252.76,129.84Z" style="fill:#92E3A9"></path><path d="M254.42,79.08a29.13,29.13,0,0,0-1.92,5.47,33.54,33.54,0,0,0-.93,5.7,31.44,31.44,0,0,0,0,5.74,33.09,33.09,0,0,0,1,5.6v0a.71.71,0,0,1-.51.87.73.73,0,0,1-.87-.52v0a33.5,33.5,0,0,1-.72-5.89,32.07,32.07,0,0,1,.31-5.88,32.59,32.59,0,0,1,1.3-5.71A28.89,28.89,0,0,1,254.42,79.08Z" style="fill:#92E3A9"></path><path d="M297.57,219c3,10.54,6,21.1,8.87,31.71.7,2.65,1.4,5.3,2.06,8s1.27,5.36,1.74,8.06a138.28,138.28,0,0,0,3.83,16h0a.23.23,0,0,1-.15.29.23.23,0,0,1-.29-.15,137.92,137.92,0,0,1-4.08-16c-.51-2.7-1.15-5.34-1.86-8s-1.42-5.29-2.16-7.93c-3-10.55-6.14-21.06-9.33-31.55a.71.71,0,0,1,1.36-.42Z" style="fill:#92E3A9"></path><path d="M299.73,265.7c1,2.69,8.08,3.15,9.92-.21" style="fill:none;stroke:#92E3A9;stroke-linecap:round;stroke-linejoin:round;stroke-width:1.4274200000000001px"></path><path d="M306.25,248.51a41.17,41.17,0,0,1,3.66,3.81,24.17,24.17,0,0,1,1.58,2.2,5.43,5.43,0,0,1,.63,1.39l.08.29a1.27,1.27,0,0,0,.07.24,3.31,3.31,0,0,0,.23.52,15.26,15.26,0,0,0,3.17,3.83,14.05,14.05,0,0,0,4.29,2.77s0,0,0,0a0,0,0,0,1,0,0,12.13,12.13,0,0,1-4.81-2.18,13.88,13.88,0,0,1-2.05-1.71,12.12,12.12,0,0,1-1.75-2.12A4.83,4.83,0,0,1,311,257a3.34,3.34,0,0,1-.15-.38c0-.13-.09-.29-.11-.33a4,4,0,0,0-.5-.95,19.86,19.86,0,0,0-1.55-2c-1.08-1.3-2.28-2.56-3.43-3.82h0a.72.72,0,0,1,.05-1A.71.71,0,0,1,306.25,248.51Z" style="fill:#92E3A9"></path><path d="M303.48,267.69c0,1.51,0,3.06.12,4.59s.25,3.07.45,4.6a40.81,40.81,0,0,0,2.19,9,.14.14,0,0,1-.26.1,42,42,0,0,1-2.77-8.93c-.3-1.53-.55-3.08-.75-4.63s-.33-3.11-.4-4.7a.71.71,0,1,1,1.42-.06s0,0,0,0Z" style="fill:#92E3A9"></path><path d="M310.18,286.47a70.09,70.09,0,0,1-2.95-9.18,50.46,50.46,0,0,1-1.51-9.58.71.71,0,0,1,1.42-.08v0h0a49.76,49.76,0,0,0,1.13,9.38,70.75,70.75,0,0,0,2.58,9.16h0a.36.36,0,0,1-.22.46A.36.36,0,0,1,310.18,286.47Z" style="fill:#92E3A9"></path><path d="M244.51,145.45a42.65,42.65,0,0,0-5-11.13c-2.22-3.38-5.15-6.43-8.87-7.76a12,12,0,0,0-2.84-.65,18.17,18.17,0,0,0-2.95,0,15,15,0,0,0-5.61,1.83l-.66.35c-.21.13-.41.28-.61.42l-1.23.87a25.42,25.42,0,0,0-2.22,2.06,32.17,32.17,0,0,0-3.78,4.81,55.48,55.48,0,0,0-5.31,11.16c-.36,1-.68,2-1,2.94a21.07,21.07,0,0,0-.64,3,39.36,39.36,0,0,0-.36,6.16c0,2.07.13,4.15.21,6.25a26.28,26.28,0,0,1-.28,6.47,5.71,5.71,0,0,1-.68,1.66,5.85,5.85,0,0,1-.6.73c-.14.17-.29.33-.43.51a11,11,0,0,0-1.26,2.63,33.47,33.47,0,0,0-1.23,6,92.35,92.35,0,0,0-.56,12.46,56.2,56.2,0,0,1-.05,6.35,34.09,34.09,0,0,1-1.23,6.27c-.59,2.05-1.36,4-2.12,6a25.87,25.87,0,0,0-1.77,5.86c-.08.93-.07,2.08-.18,3.12s-.22,2.11-.36,3.15c-.29,2.09-.62,4.16-1,6.23-.7,4.14-1.47,8.26-2.14,12.38-.33,2.07-.64,4.13-.87,6.2-.1,1-.19,2.07-.19,3.08a10.69,10.69,0,0,0,.12,1.49l.28,1.55c.37,2.06.75,4.12,1.06,6.2a34.33,34.33,0,0,1,.49,6.34,36.91,36.91,0,0,1-.78,6.3c-.41,2.06-.88,4.1-1.34,6.15a.39.39,0,0,1-.46.29.37.37,0,0,1-.29-.45h0c.86-4.09,1.94-8.18,2-12.3a34.83,34.83,0,0,0-.51-6.18c-.33-2.06-.72-4.12-1.1-6.18l-.29-1.54a11.24,11.24,0,0,1-.14-1.65c0-1.08.08-2.13.17-3.19.22-2.1.52-4.18.85-6.25.65-4.15,1.39-8.27,2.07-12.41.34-2.06.66-4.13.93-6.19.13-1,.26-2.07.34-3.1s.07-2,.16-3.15a26.94,26.94,0,0,1,1.81-6.16c.75-2,1.49-3.9,2.05-5.88a33.11,33.11,0,0,0,1.15-6.05,56.08,56.08,0,0,0,0-6.22,94,94,0,0,1,.49-12.65,34.43,34.43,0,0,1,1.26-6.28,12.28,12.28,0,0,1,1.43-3c.18-.23.39-.46.59-.68a5.9,5.9,0,0,0,.39-.49,4.17,4.17,0,0,0,.49-1.24,25.31,25.31,0,0,0,.2-6.06c-.09-2.09-.22-4.19-.25-6.31a42.92,42.92,0,0,1,.34-6.39,23.22,23.22,0,0,1,.67-3.17c.31-1,.62-2,1-3a57.33,57.33,0,0,1,5.41-11.52,34.52,34.52,0,0,1,3.95-5.09,29.34,29.34,0,0,1,2.37-2.22l1.34-1c.22-.15.44-.32.67-.47l.72-.39a16.78,16.78,0,0,1,6.25-2.07,20.56,20.56,0,0,1,3.33,0,13.4,13.4,0,0,1,3.26.73,16.75,16.75,0,0,1,5.64,3.45,26.63,26.63,0,0,1,4.18,5,44.25,44.25,0,0,1,5.37,11.66,1,1,0,0,1-.65,1.21,1,1,0,0,1-1.21-.65h0Z" style="fill:#92E3A9"></path><path d="M203.11,172.11a20.12,20.12,0,0,1,1.94,5.25,33.1,33.1,0,0,1,.77,5.41,42.61,42.61,0,0,1,0,5.42c-.05.9-.16,1.8-.25,2.7l-.39,2.67a.05.05,0,0,1-.07.05.07.07,0,0,1-.06-.07l.23-2.68c0-.9.09-1.79.09-2.68a43.12,43.12,0,0,0-.31-5.34,32.61,32.61,0,0,0-1.06-5.2,19,19,0,0,0-2-4.73l0-.06a.71.71,0,0,1,1.2-.77Z" style="fill:#92E3A9"></path><path d="M193.48,219.42l-4.65,15.78q-2.33,7.89-4.56,15.8c-.73,2.64-1.46,5.28-2.15,7.93s-1.34,5.28-1.84,8a91.09,91.09,0,0,1-4.3,15.92.16.16,0,0,1-.2.09.16.16,0,0,1-.1-.18h0c1.27-5.33,2.65-10.63,3.61-16,.47-2.7,1.09-5.42,1.76-8.07s1.36-5.32,2.07-8c2.83-10.6,5.86-21.15,9-31.67a.72.72,0,0,1,1.37.41Z" style="fill:#92E3A9"></path><path d="M189.69,265.79c-2,2-7.82,3-9.66-.3" style="fill:none;stroke:#92E3A9;stroke-linecap:round;stroke-linejoin:round;stroke-width:1.4274200000000001px"></path><path d="M185.09,246.62c-1.49,1.12-3,2.3-4.35,3.55a18.72,18.72,0,0,0-1.91,2,3.13,3.13,0,0,0-.61,1,5.57,5.57,0,0,1-.66,1.41,20.3,20.3,0,0,1-3.84,4.31,12.46,12.46,0,0,1-4.92,2.82,12.23,12.23,0,0,0,4.63-3.13,20.24,20.24,0,0,0,3.39-4.42,5.08,5.08,0,0,0,.47-1.18,3.77,3.77,0,0,1,.72-1.46,18.53,18.53,0,0,1,1.93-2.19c1.37-1.37,2.8-2.62,4.28-3.85a.72.72,0,1,1,.91,1.11l0,0Z" style="fill:#92E3A9"></path><path d="M187.68,267.44q-.54,4.72-1.36,9.39c-.28,1.56-.59,3.12-1,4.66a20.28,20.28,0,0,1-1.57,4.53.25.25,0,0,1-.34.1.25.25,0,0,1-.11-.32v0a19.35,19.35,0,0,0,1.29-4.45c.29-1.54.53-3.09.73-4.64.39-3.11.68-6.25.88-9.37h0a.72.72,0,0,1,1.43.09Z" style="fill:#92E3A9"></path><path d="M179,286.28a70.86,70.86,0,0,0,2.5-9.24,50.43,50.43,0,0,0,1-9.44h0a.72.72,0,0,1,1.43,0v0a50.45,50.45,0,0,1-1.62,9.59,73,73,0,0,1-3,9.17.17.17,0,0,1-.22.09.16.16,0,0,1-.09-.2Z" style="fill:#92E3A9"></path><path d="M252.25,176.22c.42,5.4.6,10.75.63,16.14s-.15,10.77-.64,16.15a77.21,77.21,0,0,1-2.93,16,26.82,26.82,0,0,1-3.64,7.6c-.46.61-.87,1.1-1.29,1.62l-1.25,1.54-2.46,3.14c-6.42,8.42-12.21,17.4-16,27.21a59.89,59.89,0,0,0-3.85,15.19,44.46,44.46,0,0,0,.95,15.51c.64,2.49,1.45,5.1,2.17,7.7s1.29,5.23,1.78,7.88,1,5.29,1.4,7.94.78,5.31,1.05,8A257.19,257.19,0,0,1,229.74,360a157.4,157.4,0,0,1-.91,16.08l-.55,4c-.19,1.29-.35,2.6-.44,3.91a72.11,72.11,0,0,0-.11,7.92,131.84,131.84,0,0,0,1.64,15.84c.84,5.25,1.9,10.49,3.2,15.62v0a.71.71,0,0,1-.1.57h0a70.93,70.93,0,0,0-5,8.86,21.5,21.5,0,0,0-1.65,4.69,4.83,4.83,0,0,0,0,2.2,1.28,1.28,0,0,0,.46.67,4,4,0,0,0,.94.37,3.29,3.29,0,0,0,3.54-1.82,12.45,12.45,0,0,0,1.56-4.57,35.32,35.32,0,0,0,0-10.06h0a.73.73,0,0,1,.63-.8.72.72,0,0,1,.79.63h0a37.16,37.16,0,0,1,0,10.48,13.87,13.87,0,0,1-1.77,5.1,6,6,0,0,1-2.07,2,4.18,4.18,0,0,1-3,.4,4.66,4.66,0,0,1-1.43-.6,2.66,2.66,0,0,1-1-1.4,6.19,6.19,0,0,1,0-2.9,23.78,23.78,0,0,1,1.76-5,71.62,71.62,0,0,1,5.13-9.07h0l-.1.58c-1.35-5.21-2.44-10.45-3.32-15.75a133.92,133.92,0,0,1-1.76-16,75.52,75.52,0,0,1,.07-8.1c.08-1.35.24-2.7.43-4.05l.52-3.94a159.14,159.14,0,0,0,.79-15.91,255,255,0,0,0-1.82-31.86c-.29-2.65-.71-5.27-1.09-7.9s-.86-5.25-1.44-7.84-1.17-5.17-1.81-7.74-1.51-5-2.23-7.71a46.68,46.68,0,0,1-1.1-16.31,62.28,62.28,0,0,1,3.89-15.83c3.9-10.16,9.76-19.36,16.22-27.94.81-1.08,1.63-2.14,2.47-3.2l1.25-1.58c.42-.52.86-1.06,1.2-1.52a23.88,23.88,0,0,0,3.2-6.82,75,75,0,0,0,2.71-15.45c.45-5.27.58-10.57.53-15.88s-.28-10.63-.71-15.89v0a1.54,1.54,0,0,1,3.06-.26Z" style="fill:#92E3A9"></path><path d="M227.78,334.3s5.47,15.44,3.59,37.73a161.67,161.67,0,0,0,2.47,42.39" style="fill:none;stroke:#92E3A9;stroke-linecap:round;stroke-linejoin:round;stroke-width:1.4274200000000001px"></path><path d="M228.55,345.44S219.47,355,218,372.83" style="fill:none;stroke:#92E3A9;stroke-linecap:round;stroke-linejoin:round;stroke-width:1.4274200000000001px"></path><path d="M223.26,306a44.47,44.47,0,0,0-4.27,23.6" style="fill:none;stroke:#92E3A9;stroke-linecap:round;stroke-linejoin:round;stroke-width:1.4274200000000001px"></path><path d="M261.44,344.53s9.86,10.46,11.35,28.3" style="fill:none;stroke:#92E3A9;stroke-linecap:round;stroke-linejoin:round;stroke-width:1.4274200000000001px"></path><path d="M268.28,306s4.65,9.67,3.49,23.6" style="fill:none;stroke:#92E3A9;stroke-linecap:round;stroke-linejoin:round;stroke-width:1.4274200000000001px"></path><path d="M251.14,210.59s20.43,1.94,20.43,19.59" style="fill:none;stroke:#92E3A9;stroke-linecap:round;stroke-linejoin:round;stroke-width:1.4274200000000001px"></path><path d="M263.48,215.38s-7.94,15.41-3.87,25.18" style="fill:none;stroke:#92E3A9;stroke-linecap:round;stroke-linejoin:round;stroke-width:1.4274200000000001px"></path><path d="M247,228.4A134.86,134.86,0,0,1,254.49,242a100.05,100.05,0,0,1,5.74,14.48A45,45,0,0,1,262.44,272c-.2,5.11-.29,10.25-.36,15.39-.14,10.27-.15,20.55-.1,30.82s.15,20.56.51,30.81c.09,2.57.26,5.11.37,7.7s.19,5.16.24,7.73q.13,7.74-.07,15.46c-.14,5.16-.39,10.31-.89,15.46-.25,2.57-.56,5.14-1,7.7a28.16,28.16,0,0,1-2.22,7.62l-.42.84a5.65,5.65,0,0,0-.34.8,9.93,9.93,0,0,0-.42,1.71,13.87,13.87,0,0,0,0,3.64,31.23,31.23,0,0,0,2,7.23c.91,2.36,2,4.67,3.1,7,.55,1.17,1.11,2.32,1.62,3.54a7,7,0,0,1,.72,4.21,3.05,3.05,0,0,1-1.54,1.94,6.28,6.28,0,0,1-2.07.65c-1.36.21-2.66.22-3.9.33l-.47,0a1.84,1.84,0,0,1-.79-.08,2.19,2.19,0,0,1-1.1-.92,6.13,6.13,0,0,1-.76-2.05,22.55,22.55,0,0,1-.4-4,67.2,67.2,0,0,1,.28-7.78c.23-2.59.53-5.15,1-7.73a.72.72,0,0,1,.84-.56.7.7,0,0,1,.56.83h0a76,76,0,0,0-1,7.57,67,67,0,0,0-.26,7.62,23.29,23.29,0,0,0,.38,3.69,5,5,0,0,0,.56,1.55.67.67,0,0,0,.33.32s.05,0,.15,0l.5,0c1.31-.11,2.59-.13,3.78-.32s2.23-.62,2.38-1.48a3.26,3.26,0,0,0-.06-1.54,10.86,10.86,0,0,0-.6-1.7c-.48-1.15-1-2.31-1.6-3.46-1.11-2.32-2.22-4.67-3.16-7.1a32.46,32.46,0,0,1-2.11-7.59,15.32,15.32,0,0,1,0-4.06,11.32,11.32,0,0,1,.49-2,7.41,7.41,0,0,1,.41-1l.44-.88a27.23,27.23,0,0,0,2-7.15c.43-2.5.74-5,1-7.58.47-5.09.7-10.22.83-15.34s.12-10.26,0-15.38c-.06-2.57-.14-5.13-.26-7.69s-.3-5.13-.39-7.7c-.4-10.3-.52-20.58-.62-30.87s-.1-20.58,0-30.87c.05-5.14.13-10.29.32-15.44a43,43,0,0,0-2.17-14.84A100.25,100.25,0,0,0,252.56,243a137.66,137.66,0,0,0-7.42-13.35l0,0a1.11,1.11,0,0,1,.34-1.52,1.09,1.09,0,0,1,1.52.34Z" style="fill:#92E3A9"></path><path d="M261.44,263.5s5.08-1.8,6.69,9.94-.42,29.77,0,35.53,3.75,25.33,1.08,36.47c-1.23,5.15-2.66,13.7-2.66,13.7" style="fill:none;stroke:#92E3A9;stroke-linecap:round;stroke-linejoin:round;stroke-width:1.4274200000000001px"></path><path d="M264.77,232.89a16.61,16.61,0,0,0-5.1-7.17" style="fill:none;stroke:#92E3A9;stroke-linecap:round;stroke-linejoin:round;stroke-width:1.4274200000000001px"></path><path d="M252,201.47a56.19,56.19,0,0,0,9.15,1.39,13.06,13.06,0,0,1,8.35,4.3" style="fill:none;stroke:#92E3A9;stroke-linecap:round;stroke-linejoin:round;stroke-width:1.4274200000000001px"></path><path d="M271.65,255.58s1.9,8.32-5.1,11.15" style="fill:none;stroke:#92E3A9;stroke-linecap:round;stroke-linejoin:round;stroke-width:1.4274200000000001px"></path><path d="M277,269.26s-.26-6.65-6.44-5.86" style="fill:none;stroke:#92E3A9;stroke-linecap:round;stroke-linejoin:round;stroke-width:1.4274200000000001px"></path><path d="M264.77,197.26s-4.16,2.26-6,5.37" style="fill:none;stroke:#92E3A9;stroke-linecap:round;stroke-linejoin:round;stroke-width:1.4274200000000001px"></path><path d="M253.12,226.46A21.46,21.46,0,0,1,249.6,235" style="fill:none;stroke:#92E3A9;stroke-linecap:round;stroke-linejoin:round;stroke-width:1.4274200000000001px"></path><path d="M264.77,251s-4.6-2.36-7.68-.34" style="fill:none;stroke:#92E3A9;stroke-linecap:round;stroke-linejoin:round;stroke-width:1.4274200000000001px"></path><line x1="262.06" y1="252.58" x2="260.16" y2="249.84" style="fill:none;stroke:#92E3A9;stroke-linecap:round;stroke-linejoin:round;stroke-width:1.4274200000000001px"></line><path d="M217.82,255.58s-1.9,8.32,5.1,11.15" style="fill:none;stroke:#92E3A9;stroke-linecap:round;stroke-linejoin:round;stroke-width:1.4274200000000001px"></path><path d="M212.48,269.26s.26-6.65,6.44-5.86" style="fill:none;stroke:#92E3A9;stroke-linecap:round;stroke-linejoin:round;stroke-width:1.4274200000000001px"></path><path d="M222.92,250.79s4.61-2.36,7.69-.35" style="fill:none;stroke:#92E3A9;stroke-linecap:round;stroke-linejoin:round;stroke-width:1.4274200000000001px"></path><line x1="225.64" y1="252.37" x2="227.54" y2="249.63" style="fill:none;stroke:#92E3A9;stroke-linecap:round;stroke-linejoin:round;stroke-width:1.4274200000000001px"></line><path d="M234.87,128.12A49.36,49.36,0,0,0,238.13,114a25.5,25.5,0,0,0-.45-7.15,16,16,0,0,0-1.13-3.34c-.24-.55-.54-1-.84-1.56s-.65-1.09-.92-1.65a43.14,43.14,0,0,1-4.4-14.36,29.38,29.38,0,0,1-.18-7.56,18.76,18.76,0,0,1,2.38-7.17.34.34,0,0,1,.47-.12.35.35,0,0,1,.14.43,22.15,22.15,0,0,0-1.7,7,33.07,33.07,0,0,0,.33,7.22,41.6,41.6,0,0,0,4.34,13.82c.27.54.59,1,.89,1.58a17.09,17.09,0,0,1,2.16,5.37,27,27,0,0,1,.47,7.59,42.12,42.12,0,0,1-1.2,7.44,52.9,52.9,0,0,1-2.3,7.17.72.72,0,0,1-1.33-.53Z" style="fill:#92E3A9"></path><path d="M236.53,79a28.54,28.54,0,0,1,1.66,5.57,34.22,34.22,0,0,1,.65,5.8,33.83,33.83,0,0,1-.33,5.86A36.79,36.79,0,0,1,237.2,102a.71.71,0,0,1-.88.49.72.72,0,0,1-.49-.89l0,0v0a35.56,35.56,0,0,0,1.59-5.46,31.81,31.81,0,0,0,.67-5.68,32.44,32.44,0,0,0-.29-5.74A27.37,27.37,0,0,0,236.53,79Z" style="fill:#92E3A9"></path><path d="M251.75,199.73s-12.33,5.37-25.3,1.19" style="fill:none;stroke:#92E3A9;stroke-linecap:round;stroke-linejoin:round;stroke-width:1.4274200000000001px"></path><path d="M233.7,202.51s-7.26,6.78-15,3.79" style="fill:none;stroke:#92E3A9;stroke-linecap:round;stroke-linejoin:round;stroke-width:1.4274200000000001px"></path><path d="M236.12,169.31a24.17,24.17,0,0,0-11.68,6.95,20.81,20.81,0,0,0-3.75,5.82,40.29,40.29,0,0,0-2.3,6.63.2.2,0,0,1-.25.14.19.19,0,0,1-.14-.23,42.13,42.13,0,0,1,2.09-6.81,21.63,21.63,0,0,1,3.67-6.15,24.31,24.31,0,0,1,5.43-4.73,24.7,24.7,0,0,1,6.62-3,.72.72,0,0,1,.88.5.72.72,0,0,1-.5.88h-.07Z" style="fill:#92E3A9"></path><path d="M223.47,176.68s1.67.82,4.14,7.12" style="fill:none;stroke:#92E3A9;stroke-linecap:round;stroke-linejoin:round"></path><path d="M234.51,180.61a12.63,12.63,0,0,0-4.21-.88,7,7,0,0,0-2.06.27,4.59,4.59,0,0,0-1.7,1v0a.51.51,0,0,1-.71,0,.5.5,0,0,1,0-.71l0,0a5.44,5.44,0,0,1,2.17-1,7.53,7.53,0,0,1,2.27,0A12.78,12.78,0,0,1,234.51,180.61Z" style="fill:#92E3A9"></path><path d="M230.07,179.46a10.89,10.89,0,0,1,.4,1.51,12.88,12.88,0,0,1,.19,1.52,9.45,9.45,0,0,1-.3,3,.26.26,0,0,1-.31.17.24.24,0,0,1-.17-.28h0a8.46,8.46,0,0,0,0-2.84,9.4,9.4,0,0,0-.29-1.4,10.25,10.25,0,0,0-.47-1.32v0a.5.5,0,0,1,.25-.66.5.5,0,0,1,.66.25Z" style="fill:#92E3A9"></path><path d="M224.77,187.13a6.61,6.61,0,0,1,.38-2.59,4.47,4.47,0,0,1,.71-1.2,3.65,3.65,0,0,1,1.17-.87.49.49,0,0,1,.67.23.5.5,0,0,1-.23.67l-.07,0h0a2.9,2.9,0,0,0-1,.5,3.55,3.55,0,0,0-.73.89,6,6,0,0,0-.74,2.34h0a.09.09,0,0,1-.1.08S224.78,187.17,224.77,187.13Z" style="fill:#92E3A9"></path><path d="M254.5,163.84c2-.13,4-.12,6-.05s4,.23,6,.47,4,.55,5.92,1a57.88,57.88,0,0,1,5.79,1.5s0,0,0,.06,0,0,0,0a58.77,58.77,0,0,0-5.85-1.17q-2.94-.45-5.91-.63c-2-.12-4-.17-5.94-.13s-4,.14-5.88.37h0a.71.71,0,1,1-.16-1.41Z" style="fill:#263238"></path><path d="M270.92,165.17a23.6,23.6,0,0,1,1.34,2.84,27.33,27.33,0,0,1,1,2.94,20.74,20.74,0,0,1,.57,3,17.5,17.5,0,0,1,.06,3.07,17,17,0,0,0-.31-3,21,21,0,0,0-.8-2.92,24.56,24.56,0,0,0-1.18-2.79,20.52,20.52,0,0,0-1.49-2.59v0a.51.51,0,0,1,.14-.7.5.5,0,0,1,.69.14Z" style="fill:#263238"></path><path d="M267.34,171.25a10.33,10.33,0,0,1,5.17-1.64" style="fill:none;stroke:#263238;stroke-linecap:round;stroke-linejoin:round;stroke-width:0.5px"></path><path d="M277.16,175.76s-.79-1.12-3.46-1.58" style="fill:none;stroke:#263238;stroke-linecap:round;stroke-linejoin:round;stroke-width:0.5px"></path><path d="M255.74,167.92a24.19,24.19,0,0,1,6.59,3.06,23.93,23.93,0,0,1,5.39,4.74,21.58,21.58,0,0,1,3.61,6.15,42,42,0,0,1,2,6.79A41.93,41.93,0,0,0,271,182a20.71,20.71,0,0,0-3.81-5.82,24.24,24.24,0,0,0-11.75-6.89h-.05a.71.71,0,1,1,.32-1.39Z" style="fill:#92E3A9"></path><path d="M268.08,176.68s-1.67.82-4.14,7.12" style="fill:none;stroke:#92E3A9;stroke-linecap:round;stroke-linejoin:round"></path><path d="M257,180.61s5.29-2.61,8.3,0" style="fill:none;stroke:#92E3A9;stroke-linecap:round;stroke-linejoin:round"></path><path d="M262.41,179.85a8.53,8.53,0,0,0-.53,1.31,10.9,10.9,0,0,0-.36,1.39,8.41,8.41,0,0,0-.08,2.92,8.69,8.69,0,0,1-.42-3,11.27,11.27,0,0,1,.13-1.52,9.7,9.7,0,0,1,.34-1.52.5.5,0,0,1,1,.3l0,.08Z" style="fill:#92E3A9"></path><path d="M266.69,187.13a6.21,6.21,0,0,0-.78-2.36,3.83,3.83,0,0,0-.76-.88,2.78,2.78,0,0,0-1-.49h0a.5.5,0,0,1-.34-.63.5.5,0,0,1,.62-.34l.09,0a3.59,3.59,0,0,1,1.15.89,4.36,4.36,0,0,1,.68,1.2A6.31,6.31,0,0,1,266.69,187.13Z" style="fill:#92E3A9"></path><path d="M229.77,252.58s-7,24.25-2.93,44.62" style="fill:none;stroke:#92E3A9;stroke-linecap:round;stroke-linejoin:round;stroke-width:1.4274200000000001px"></path><path d="M227.23,269.26s4.06,3,3.6,11.73" style="fill:none;stroke:#92E3A9;stroke-linecap:round;stroke-linejoin:round;stroke-width:1.4274200000000001px"></path><path d="M240.65,63c-3.14,0-7.64,3.84-8.14,9.16" style="fill:none;stroke:#92E3A9;stroke-linecap:round;stroke-linejoin:round;stroke-width:0.5px"></path><path d="M240.12,71.11s-4-2-7.23.23" style="fill:none;stroke:#92E3A9;stroke-linecap:round;stroke-linejoin:round;stroke-width:0.5px"></path><path d="M243.59,65.86s-6.08-1.61-10,2.48" style="fill:none;stroke:#92E3A9;stroke-linecap:round;stroke-linejoin:round;stroke-width:0.5px"></path><path d="M241.62,154.93s-5.26,2.49-5.54,7.2,1.39,10.93,4.71,13.14,13.14,5.81,16.74,5.4,4.29-2.77,4.84-6.51-.83-7.88-1.52-10.1-3.19-5.25-5-6.91-2.77-2.08-6.37-3.05S241.62,154.93,241.62,154.93Z" style="fill:#92E3A9"></path><path d="M241.62,154.93s-5.26,2.49-5.54,7.2,1.39,10.93,4.71,13.14,13.14,5.81,16.74,5.4,4.29-2.77,4.84-6.51-.83-7.88-1.52-10.1-3.19-5.25-5-6.91-2.77-2.08-6.37-3.05S241.62,154.93,241.62,154.93Z" style="fill:#fff;opacity:0.58"></path><path d="M241.62,154.93s-5.26,2.49-5.54,7.2,1.39,10.93,4.71,13.14,13.14,5.81,16.74,5.4,4.29-2.77,4.84-6.51-.83-7.88-1.52-10.1-3.19-5.25-5-6.91-2.77-2.08-6.37-3.05S241.62,154.93,241.62,154.93Z" style="fill:none;stroke:#263238;stroke-miterlimit:10"></path><path d="M244.52,159.36s-2.77-.42-2.9-4.43,4-8.58,4-8.58a25.21,25.21,0,0,0-1.39-2.62L243,141.51l2.07-.83a15,15,0,0,1,1.66,1.94c.42.69,1.25,2.35,1.25,2.35v-3.46l2.21-.14.7,4s-.42-1,2.76.13,4.43,4.29,4.57,6.78a21.94,21.94,0,0,1-1,6.09l-4.7-3.46s.41-5.26-1.66-4.84-1.8,2.49-3.19,5.53S244.52,159.36,244.52,159.36Z" style="fill:#fff;stroke:#263238;stroke-linecap:round;stroke-linejoin:round"></path><path d="M246.73,157.42s2.77-6.5,5.54-7.47a11.87,11.87,0,0,1,5.53-.83c1,.14,1.39,1.94,1.39,3.74s-2.63,1-4.15,2.63-1.25,4.7-1.25,4.7" style="fill:#92E3A9;stroke:#263238;stroke-linecap:round;stroke-linejoin:round"></path><path d="M260.55,164.92a4.47,4.47,0,0,0-1.91-1.71l-.57-.23c-.16-.08-.33-.17-.49-.27a8.81,8.81,0,0,1-.93-.71,16.82,16.82,0,0,1-1.66-1.72l-.74.65a16.79,16.79,0,0,0,1.9,1.68,1.94,1.94,0,0,0,.24.15h0a7.56,7.56,0,0,0-1.74,2.56,7.24,7.24,0,0,0-.33,3.95c.17,1.28.4,2.53.53,3.8a5.78,5.78,0,0,1-.5,3.71,6,6,0,0,0,.75-3.73c-.06-1.28-.21-2.56-.29-3.83a6.52,6.52,0,0,1,.52-3.6,4.82,4.82,0,0,1,.35-.63,10.72,10.72,0,0,1,1.08,2.44,13.62,13.62,0,0,1,.53,3.32,19,19,0,0,0,.42,3.45,8.67,8.67,0,0,0,.56,1.65,3.28,3.28,0,0,0,1.06,1.35,3.11,3.11,0,0,1-.94-1.4,7.86,7.86,0,0,1-.43-1.65,17.59,17.59,0,0,1-.18-3.4,13.86,13.86,0,0,0-.31-3.51,10.82,10.82,0,0,0-1.18-3.06,6.51,6.51,0,0,1,.92-.9h0l0,0a5.63,5.63,0,0,0,.61.27c.23.08.42.12.59.17a4.12,4.12,0,0,1,1.88,1.34,6,6,0,0,1,1.09,2.16A6.19,6.19,0,0,0,260.55,164.92Z" style="fill:#263238"></path><path d="M245.21,166a4.09,4.09,0,0,1-1.5-1.17,3.21,3.21,0,0,1-.59-1.34,8.29,8.29,0,0,0,1-1.17c.57-.85,1.49-2.46,1.31-3.69l-1.42.82a5.25,5.25,0,0,1-.91,2.18,10,10,0,0,1-1.71,2,19.26,19.26,0,0,1-2.94,2l-1,.53-.73.36.74-.16a7.8,7.8,0,0,0,.31,1.8,7.52,7.52,0,0,0,1.18,2.39,16,16,0,0,0,1.71,2,12.5,12.5,0,0,0,2,1.63,11.41,11.41,0,0,1-1.8-1.81,18.47,18.47,0,0,1-1.48-2.06,7.36,7.36,0,0,1-.87-2.28,6.8,6.8,0,0,1-.14-1.9,9.41,9.41,0,0,0,1-.39,12,12,0,0,0,2.54-1.36c.12-.08.23-.17.34-.26a4.42,4.42,0,0,0,.8,1.2,4.74,4.74,0,0,0,1.84,1.13,22.13,22.13,0,0,1,3.67,1.77A22.64,22.64,0,0,0,245.21,166Z" style="fill:#263238"></path></g></svg>