<svg width="104" height="105" viewBox="0 0 104 105" fill="none" xmlns="http://www.w3.org/2000/svg">
<path d="M102 39C94.194 41.7277 89.379 47.0589 87.043 55C86.124 58.1241 86.652 62.9525 84.258 65.3966C81.289 68.427 74.825 66.7445 71 68.573C61.6198 73.056 58.4116 84.439 58 94C49.8449 88.255 33.2427 75.26 29.3457 65.9105C22.767 50.1277 43.6922 38.0082 56 38C56.302 23.4468 64.395 10.3324 80 10C62.8814 -7.15338 28.9346 1.62712 14.0934 17.0394C-0.533207 32.2286 -4.00451 57.1692 5.13119 76C32.3605 132.126 117.287 98.088 102 39Z" fill="#A41034"/>
</svg>
